<svg width="37" height="35" viewBox="0 0 37 35" fill="none" xmlns="http://www.w3.org/2000/svg">
<path d="M34.592 11.317H34.3707V4.6378C34.3629 3.40021 33.8639 2.21638 32.9834 1.34666C32.1029 0.476954 30.913 -0.00741472 29.6754 8.58295e-05H4.69533C3.7504 -0.00281805 2.82658 0.279456 2.04464 0.810004C1.2627 1.34055 0.659041 2.09469 0.312573 2.97381C0.27281 3.06077 0.240617 3.151 0.21635 3.24348C0.0726932 3.6943 -0.000287934 4.16465 8.53698e-07 4.6378V29.6841C0.00777928 30.9216 0.5068 32.1055 1.38732 32.9752C2.26783 33.8449 3.45773 34.3293 4.69533 34.3218H29.6754C30.913 34.3293 32.1029 33.8449 32.9834 32.9752C33.8639 32.1055 34.3629 30.9216 34.3707 29.6841V24.1184H34.592C35.2188 24.1301 35.8246 23.8923 36.2762 23.4574C36.7277 23.0225 36.9881 22.4261 37 21.7993V13.6362C36.9881 13.0094 36.7277 12.413 36.2762 11.9781C35.8246 11.5432 35.2188 11.3054 34.592 11.317ZM34.592 12.4307C34.9216 12.4214 35.2415 12.5431 35.4815 12.7692C35.7216 12.9953 35.8623 13.3072 35.8729 13.6368V13.8207C35.8623 14.1503 35.7216 14.4623 35.4815 14.6883C35.2415 14.9144 34.9216 15.0361 34.592 15.0269H34.3707V12.4301L34.592 12.4307ZM4.69533 1.1137H29.6754C30.6158 1.10897 31.5197 1.47748 32.1888 2.13839C32.8578 2.79929 33.2374 3.69861 33.2442 4.63903V5.87829C31.4969 4.50603 28.2651 4.62861 27.9734 4.64332H4.88349C2.33633 4.64332 1.6076 3.77608 1.39922 3.28823C1.67432 2.6421 2.13362 2.0913 2.7198 1.70458C3.30598 1.31787 3.99308 1.11236 4.69533 1.1137ZM33.2436 29.6841C33.2368 30.6245 32.8572 31.5238 32.1882 32.1847C31.5191 32.8456 30.6152 33.2141 29.6748 33.2094H4.69533C3.7549 33.2141 2.85099 32.8456 2.18193 32.1847C1.51287 31.5238 1.13329 30.6245 1.12649 29.6841V4.72545C1.9453 5.4082 3.20663 5.7551 4.88349 5.7551H27.985H28.0163C28.9283 5.70545 31.5471 5.8078 32.6865 6.86994C32.8674 7.03248 33.011 7.23232 33.1073 7.45567C33.2035 7.67903 33.2503 7.9206 33.2442 8.16374V15.0281H23.8192C23.1928 15.0164 22.5874 15.2539 22.1359 15.6882C21.6844 16.1226 21.4238 16.7184 21.4112 17.3448V21.7974C21.4231 22.4242 21.6835 23.0207 22.1351 23.4556C22.5866 23.8905 23.1924 24.1282 23.8192 24.1166H33.2436V29.6841ZM34.592 23.0036H23.8192C23.4896 23.0128 23.1698 22.8911 22.9297 22.665C22.6896 22.439 22.5489 22.127 22.5383 21.7974V17.3448C22.5489 17.0152 22.6896 16.7032 22.9297 16.4772C23.1698 16.2511 23.4896 16.1294 23.8192 16.1386H34.592C35.0437 16.139 35.4868 16.0152 35.8729 15.7807V21.7974C35.8628 22.1273 35.7223 22.4397 35.4821 22.666C35.242 22.8924 34.9218 23.0142 34.592 23.0048V23.0036Z" fill="#F6F6F6"/>
<path d="M26.1896 17.4045C25.7629 17.4045 25.3458 17.5311 24.991 17.7681C24.6362 18.0052 24.3597 18.3421 24.1964 18.7363C24.0332 19.1305 23.9904 19.5643 24.0737 19.9828C24.1569 20.4013 24.3624 20.7857 24.6641 21.0874C24.9658 21.3891 25.3502 21.5946 25.7687 21.6778C26.1872 21.7611 26.621 21.7183 27.0152 21.555C27.4094 21.3918 27.7463 21.1152 27.9834 20.7605C28.2204 20.4057 28.347 19.9886 28.347 19.5619C28.347 18.9897 28.1197 18.441 27.7151 18.0364C27.3105 17.6318 26.7618 17.4045 26.1896 17.4045ZM26.1896 20.5781C25.9887 20.5781 25.7924 20.5185 25.6254 20.4069C25.4584 20.2953 25.3282 20.1367 25.2513 19.9512C25.1745 19.7656 25.1544 19.5614 25.1935 19.3644C25.2327 19.1674 25.3295 18.9864 25.4715 18.8444C25.6135 18.7024 25.7945 18.6057 25.9915 18.5665C26.1885 18.5273 26.3927 18.5474 26.5782 18.6243C26.7638 18.7011 26.9224 18.8313 27.034 18.9983C27.1456 19.1653 27.2051 19.3617 27.2051 19.5625C27.2048 19.8318 27.0977 20.0899 26.9073 20.2803C26.717 20.4706 26.4588 20.5777 26.1896 20.5781Z" fill="#F6F6F6"/>
<path d="M11.7741 15.2572L11.7674 15.2658L11.7803 15.2584L11.7711 15.2541L11.7741 15.2572ZM15.3834 12.9797V12.9908H15.4055C15.4058 12.9875 15.4058 12.9842 15.4055 12.9809L15.3834 12.9797ZM16.7391 22.8993L16.7496 22.9048L16.7612 22.8809L16.752 22.8766L16.7391 22.8993ZM16.6104 21.3021C16.5663 21.296 16.5663 21.296 16.5602 21.3346L16.6104 21.3021ZM18.4859 26.6453L18.4957 26.6397C18.4914 26.6293 18.4877 26.6189 18.4834 26.6091L18.4675 26.6165L18.4859 26.6453ZM17.8613 23.826L17.8485 23.8333L17.8693 23.8585L17.8767 23.8536C17.8711 23.8444 17.8662 23.8352 17.8613 23.826ZM11.1012 13.3045L11.1177 13.3095C11.1214 13.2984 11.1245 13.2868 11.1282 13.2757L11.1128 13.2708C11.1085 13.2825 11.1049 13.2935 11.1012 13.3045ZM9.44639 13.4418H9.45803V13.3193H9.44639V13.4418ZM14.6308 11.8005C14.6192 11.7595 14.6106 11.73 14.6026 11.7012C14.5775 11.7405 14.5799 11.7711 14.6308 11.8005ZM12.1063 12.4281H12.0953V12.6604H12.1063V12.4281ZM14.5444 12.3478C14.5995 12.3172 14.5977 12.2706 14.5989 12.2253C14.5989 12.1946 14.6094 12.1566 14.5591 12.1272C14.5548 12.2063 14.4947 12.2663 14.5444 12.3454V12.3478ZM8.74096 12.6825C8.78386 12.7303 8.81205 12.783 8.88376 12.7646C8.86537 12.6757 8.8096 12.6126 8.76118 12.6304L8.73912 12.6825H8.74096ZM9.91341 17.5549C9.8144 17.6149 9.73052 17.6969 9.66825 17.7946C9.7601 17.7356 9.84555 17.6672 9.92322 17.5905C9.92628 17.5862 9.91954 17.5745 9.91463 17.5549H9.91341ZM4.40968 16.1594C4.51939 16.0809 4.56597 15.9688 4.65484 15.902C4.65484 15.902 4.65484 15.8934 4.65484 15.8903C4.65484 15.8873 4.6481 15.8854 4.64442 15.8836C4.50897 15.9608 4.49181 15.9804 4.406 16.1594H4.40968ZM14.9973 11.431C15.0157 11.3826 15.0197 11.33 15.0088 11.2794C14.998 11.2288 14.9727 11.1825 14.936 11.146C14.9249 11.2451 14.9464 11.3452 14.9973 11.431ZM16.3028 11.4837C16.3413 11.4346 16.364 11.3749 16.3677 11.3127C16.3775 11.2647 16.3843 11.2162 16.3879 11.1674C16.4027 11.1128 16.4012 11.0551 16.3837 11.0013C16.3549 11.1699 16.331 11.3127 16.3028 11.4837ZM15.7622 26.8708C15.8149 26.817 15.8547 26.7519 15.8784 26.6804C15.9022 26.6089 15.9094 26.533 15.8995 26.4583C15.8474 26.5196 15.8731 26.5987 15.8462 26.6637C15.8192 26.7286 15.7898 26.8016 15.7622 26.8708ZM8.34626 16.8556C8.43139 16.7548 8.49949 16.6407 8.5479 16.5179C8.45453 16.6127 8.38537 16.7285 8.34626 16.8556ZM13.2996 10.1243C13.3886 10.1827 13.4922 10.215 13.5987 10.2174C13.5644 10.1731 13.5173 10.1404 13.4638 10.1238C13.4103 10.1071 13.353 10.1073 13.2996 10.1243ZM7.21425 16.6393C7.13274 16.6846 7.1309 16.7704 7.10087 16.8397C7.09658 16.8489 7.1119 16.8667 7.12539 16.8961C7.17559 16.8299 7.21338 16.7551 7.23693 16.6754C7.23693 16.6662 7.22406 16.6546 7.21425 16.6393ZM15.5857 12.6439C15.6132 12.6348 15.639 12.6209 15.6617 12.6028C15.7199 12.536 15.7738 12.4655 15.8278 12.3944C15.837 12.3771 15.8436 12.3585 15.8474 12.3393C15.7316 12.4131 15.6405 12.5198 15.5857 12.6457V12.6439ZM16.9095 24.3604C16.9095 24.3635 16.9138 24.369 16.9175 24.3702C16.9194 24.3712 16.9215 24.3716 16.9236 24.3716C16.9257 24.3716 16.9278 24.3712 16.9297 24.3702C16.9524 24.3371 16.9751 24.3046 16.9965 24.2709C17.0576 24.1509 17.1522 24.0511 17.2687 23.9835C17.2565 23.9673 17.2393 23.9556 17.2197 23.9504C17.2002 23.9451 17.1794 23.9467 17.1608 23.9547C17.105 24.1067 16.9487 24.1962 16.9126 24.3604H16.9095ZM6.03322 15.2952C6.08982 15.2496 6.1339 15.1903 6.16131 15.123C6.19318 15.0691 6.2226 15.0145 6.2557 14.9612C6.28879 14.9079 6.33966 14.8735 6.33047 14.8049C6.19136 14.9404 6.08906 15.1092 6.03322 15.2952ZM16.0122 24.5706C16.0484 24.5461 16.0833 24.5192 16.1213 24.4977C16.1869 24.4603 16.255 24.426 16.3211 24.3892C16.3487 24.3739 16.3769 24.358 16.361 24.3175C16.2421 24.3077 16.2243 24.3175 16.0122 24.5706ZM17.4556 24.0742C17.5169 24.1471 17.5837 24.2195 17.6462 24.2936C17.6966 24.3778 17.7538 24.4577 17.8172 24.5326C17.8024 24.4312 17.7613 24.3355 17.6978 24.255C17.6343 24.1745 17.5508 24.1122 17.4556 24.0742ZM15.2762 28.3589C15.2423 28.4212 15.2241 28.4908 15.2231 28.5617C15.2222 28.6326 15.2385 28.7027 15.2707 28.7659C15.3319 28.7101 15.3356 28.7046 15.3491 28.6433C15.3712 28.5428 15.316 28.4637 15.2762 28.3589ZM14.3519 26.7727C14.5284 26.6177 14.6659 26.4233 14.7534 26.2052C14.765 26.1813 14.7914 26.1556 14.7644 26.1225C14.6137 26.3305 14.4759 26.5477 14.3519 26.7727ZM10.4043 13.1305C10.3974 13.1007 10.388 13.0716 10.3761 13.0435C10.3149 12.9246 10.2536 12.8057 10.1861 12.688C10.1666 12.6527 10.1427 12.6199 10.115 12.5905C10.1003 12.5758 10.0728 12.5746 10.0397 12.563C10.0429 12.5814 10.0484 12.5993 10.0562 12.6163C10.1537 12.7497 10.2359 12.8936 10.3014 13.0453C10.3123 13.0697 10.327 13.0922 10.3449 13.1121C10.3535 13.1219 10.3737 13.1201 10.4062 13.1274L10.4043 13.1305ZM13.3609 23.6685C13.4553 23.5821 13.5245 23.5128 13.5999 23.4515C13.6753 23.3902 13.7617 23.3326 13.8604 23.2609C13.7984 23.2585 13.7365 23.2696 13.6792 23.2934C13.6218 23.3172 13.5703 23.3531 13.5282 23.3988C13.4796 23.4257 13.4387 23.4646 13.4094 23.5118C13.3801 23.559 13.3634 23.613 13.3609 23.6685ZM18.7543 27.4291C18.7686 27.5201 18.7644 27.613 18.742 27.7023C18.7196 27.7916 18.6794 27.8755 18.6238 27.9489L18.7261 27.9348C18.7139 27.9838 18.7034 28.0261 18.693 28.069C18.7656 27.9805 18.8102 27.8724 18.8211 27.7584C18.832 27.6445 18.8087 27.5298 18.7543 27.4291ZM16.9475 10.2462C16.9916 10.3811 17.0211 10.4914 17.0627 10.5925C17.1044 10.6937 17.1154 10.8132 17.1694 10.9296C17.1939 10.8698 17.1955 10.803 17.1737 10.7421C17.1462 10.6475 17.1304 10.55 17.1265 10.4516C17.1267 10.4175 17.119 10.3839 17.1042 10.3533C17.0893 10.3227 17.0676 10.2959 17.0407 10.275C17.0111 10.2612 16.9797 10.2515 16.9475 10.2462ZM6.74172 14.8981C6.65653 14.9593 6.65469 14.9593 6.62772 15.0059C6.52317 15.1884 6.44594 15.3852 6.3985 15.59C6.39855 15.6123 6.40227 15.6345 6.40953 15.6556C6.43037 15.6458 6.44876 15.6433 6.45182 15.6347C6.54559 15.3994 6.63569 15.164 6.74172 14.8993V14.8981ZM16.8721 26.25C16.855 26.1451 16.8446 26.0557 16.8249 25.9686C16.8093 25.8756 16.8105 25.7805 16.8286 25.6879C16.832 25.6613 16.832 25.6343 16.8286 25.6076C16.8286 25.5776 16.8115 25.5574 16.7759 25.5672C16.7353 25.6817 16.7191 25.8035 16.7284 25.9247C16.7377 26.0459 16.7722 26.1638 16.8298 26.2708L16.8715 26.25H16.8721ZM6.54437 20.6788C6.56672 20.8306 6.63273 20.9726 6.73436 21.0876C6.76439 21.1201 6.79565 21.1569 6.86123 21.1336C6.85988 21.0236 6.81722 20.9181 6.74172 20.8382C6.69453 20.772 6.64795 20.6868 6.54437 20.6788ZM9.02656 14.0075C8.92727 14.0577 8.83829 14.1261 8.76425 14.2092C8.66728 14.3538 8.60441 14.5185 8.58038 14.6909C8.58038 14.6909 8.59325 14.6989 8.60612 14.7068C8.62206 14.6811 8.63983 14.6566 8.65393 14.6296C8.69254 14.5585 8.73238 14.4886 8.7667 14.4151C8.8216 14.286 8.91977 14.18 9.04433 14.1154C9.06369 14.1008 9.08119 14.084 9.09643 14.0651C9.07069 14.0437 9.05108 14.0278 9.02779 14.0075H9.02656ZM7.04326 15.3013C7.06348 15.1175 7.20016 14.9741 7.20506 14.811C7.2829 14.6742 7.39898 14.563 7.53908 14.4911C7.54644 14.4874 7.54644 14.4684 7.55073 14.4537C7.53177 14.4455 7.51105 14.4422 7.49047 14.4441C7.4699 14.446 7.45015 14.4531 7.43305 14.4647C7.3018 14.5256 7.19629 14.6309 7.13519 14.762C7.05951 14.93 7.02787 15.1146 7.04326 15.2983V15.3013ZM8.78386 18.2818L8.73789 18.1592L8.47741 18.2021C8.44003 18.1654 8.41122 18.131 8.3769 18.1035C8.35422 18.0851 8.32419 18.0642 8.28681 18.1035C8.30642 18.2021 8.32664 18.3051 8.3481 18.4099C8.41448 18.3842 8.48326 18.3651 8.55341 18.3529C8.63356 18.3391 8.71148 18.3146 8.78508 18.28L8.78386 18.2818ZM15.536 12.0304C15.436 12.0952 15.3475 12.1764 15.2743 12.2706C15.2591 12.2924 15.2421 12.3129 15.2235 12.3319C15.0512 12.4814 14.8784 12.6291 14.7062 12.7787C14.6804 12.8014 14.659 12.8289 14.6216 12.87C14.6764 12.8701 14.7293 12.8502 14.7705 12.8142C14.857 12.7438 14.9397 12.6678 15.0243 12.5948C15.0586 12.5602 15.0971 12.5299 15.1389 12.5047C15.2576 12.44 15.3618 12.3518 15.4453 12.2455C15.5015 12.1881 15.5333 12.1113 15.5342 12.031L15.536 12.0304ZM13.8739 24.084C13.7838 24.1073 13.7758 24.1098 13.7243 24.1729C13.5262 24.3954 13.4016 24.6736 13.3676 24.9696C13.371 24.9933 13.3776 25.0164 13.3873 25.0383C13.4142 25.0119 13.4351 24.9997 13.4436 24.9813C13.4755 24.92 13.5049 24.8513 13.5313 24.7845C13.6063 24.5678 13.7093 24.3617 13.8377 24.1717C13.8539 24.1433 13.8668 24.1133 13.8763 24.0822L13.8739 24.084ZM8.24574 17.7173C8.23042 17.6971 8.21449 17.6763 8.19978 17.656C8.20517 17.6378 8.20926 17.6191 8.21203 17.6003C8.21196 17.5842 8.21053 17.5683 8.20774 17.5525C8.11943 17.4994 8.01404 17.4825 7.91356 17.5053C7.95339 17.6536 8.04744 17.7815 8.1771 17.8638C8.19242 17.9104 8.20468 17.9478 8.21632 17.9821C8.258 18.0017 8.28987 18.0054 8.31193 17.9607C8.29845 17.9214 8.28497 17.881 8.2721 17.8411C8.35116 17.7743 8.47619 17.8019 8.52461 17.691C8.42532 17.6493 8.34074 17.713 8.24574 17.7173ZM12.1033 24.0301L12.0843 24.0233C12.0721 24.04 12.0612 24.0576 12.0518 24.076C11.9742 24.2583 11.9374 24.4554 11.9439 24.6534C11.9644 24.8743 11.9611 25.0969 11.9341 25.3171C11.9267 25.3362 11.9246 25.3568 11.9278 25.3769C11.931 25.3971 11.9396 25.416 11.9525 25.4317C11.966 25.4238 11.9844 25.4189 11.9868 25.4103C12.0158 25.3257 12.0363 25.2385 12.0481 25.1498C12.0573 25.0028 12.0555 24.8553 12.0426 24.7085C12.0188 24.5123 12.0344 24.3133 12.0885 24.1232C12.097 24.0907 12.1023 24.0575 12.1045 24.0239L12.1033 24.0301ZM5.89103 18.9247C5.9076 18.9013 5.92274 18.877 5.93638 18.8518C6.01361 18.6759 6.10186 18.5031 6.16377 18.3216C6.21251 18.1968 6.28078 18.0806 6.36602 17.9772C6.41382 17.9159 6.46898 17.8546 6.51924 17.7933C6.52986 17.776 6.5385 17.7575 6.54498 17.7382C6.53027 17.7382 6.52476 17.732 6.5223 17.7333C6.50314 17.7442 6.48508 17.7569 6.46837 17.7713C6.31953 17.9069 6.18984 18.0622 6.08286 18.2328C6.02209 18.3316 5.9702 18.4355 5.9278 18.5435C5.88023 18.6655 5.8675 18.7984 5.89103 18.9272V18.9247ZM4.33368 17.9135C4.37046 17.8277 4.406 17.7412 4.44339 17.656C4.48426 17.5469 4.53237 17.4407 4.58742 17.338C4.71104 17.1349 4.85104 16.9422 5.00602 16.7618C5.04525 16.7153 5.08202 16.6668 5.13228 16.6037C4.97292 16.665 4.85096 16.7778 4.60152 17.1253C4.42985 17.3524 4.33593 17.6288 4.33368 17.9135ZM16.8366 22.5763L16.8102 22.4782C16.7869 22.4879 16.7649 22.5005 16.7446 22.5156C16.6904 22.5816 16.6204 22.6328 16.5412 22.6646C16.5222 22.6707 16.5111 22.7026 16.4909 22.7308C16.5132 22.7443 16.538 22.7532 16.5638 22.757C16.5896 22.7608 16.6158 22.7594 16.6411 22.7528C16.7226 22.729 16.8025 22.6997 16.8801 22.6652C17.0088 22.6039 17.1332 22.5316 17.2711 22.458C17.3153 22.4543 17.3593 22.4482 17.4029 22.4396C17.4243 22.4347 17.4421 22.4121 17.4752 22.3875L17.3355 22.3085L17.4519 22.1761C17.4519 22.1534 17.4519 22.1246 17.4574 22.0676L17.2736 22.3023C17.2038 22.3287 17.1409 22.3706 17.0897 22.4249C17.0165 22.4918 16.9304 22.543 16.8366 22.5751V22.5763ZM15.62 28.0923C15.6384 28.1775 15.6531 28.2706 15.6813 28.3607C15.7073 28.498 15.7676 28.6264 15.8566 28.734C15.9105 28.7873 15.962 28.8443 16.0196 28.8939C16.0604 28.931 16.11 28.9568 16.1637 28.969C16.2174 28.9811 16.2733 28.9791 16.326 28.9632C16.2856 28.8609 16.19 28.8651 16.1085 28.8351C15.8799 28.5667 15.7261 28.2429 15.6623 27.8962C15.6494 27.9575 15.6372 28.0157 15.6212 28.0923H15.62ZM11.6007 15.5281C11.5784 15.5336 11.5577 15.5441 11.5402 15.5589C11.5226 15.5736 11.5087 15.5923 11.4996 15.6133C11.4217 15.7359 11.35 15.8585 11.2703 15.9767C11.2013 16.0921 11.1226 16.2014 11.035 16.3034C10.9505 16.3872 10.8771 16.4815 10.8168 16.5841C10.8632 16.5753 10.9085 16.5611 10.9516 16.5418C11.0349 16.4885 11.1071 16.4196 11.1643 16.339C11.2522 16.2206 11.334 16.0979 11.4095 15.9712C11.464 15.8732 11.5271 15.7806 11.5811 15.6826C11.605 15.639 11.6375 15.5906 11.6038 15.5306L11.6007 15.5281ZM8.53625 14.1387C8.50806 14.1295 8.48967 14.1166 8.47496 14.1203C8.33768 14.1608 8.201 14.2043 8.06433 14.2478C8.05577 14.2509 8.04802 14.256 8.04165 14.2625C7.98036 14.3238 7.91907 14.3796 7.86269 14.4464C7.81357 14.5052 7.76755 14.5666 7.72479 14.6302C7.70956 14.6523 7.69759 14.6764 7.68924 14.7019C7.65798 14.7957 7.62795 14.8895 7.60037 14.9845C7.58865 15.0228 7.58327 15.0627 7.58444 15.1028C7.58444 15.1205 7.61202 15.1365 7.62979 15.1579C7.73208 14.8897 7.88107 14.6418 8.06984 14.4255C8.46393 14.2466 8.46393 14.2466 8.53441 14.1436L8.53625 14.1387ZM9.57448 23.2811L9.55119 23.264C9.50339 23.3375 9.43352 23.3865 9.38571 23.4644C9.26286 23.6782 9.15712 23.9013 9.06946 24.1318C8.96148 24.4005 8.94005 24.6962 9.00817 24.9776C9.02779 25.0695 9.04617 25.1615 9.06946 25.254C9.07229 25.2792 9.08351 25.3026 9.10129 25.3206C9.11908 25.3387 9.14241 25.3502 9.16753 25.3533C9.16753 25.189 9.10991 25.0426 9.11972 24.8918C9.12953 24.741 9.13872 24.5804 9.14853 24.4186L9.07314 24.3776C9.13443 24.206 9.18469 24.0583 9.23678 23.9106C9.27517 23.7962 9.33032 23.6882 9.40042 23.59C9.46496 23.491 9.52429 23.3888 9.57816 23.2836L9.57448 23.2811ZM15.2553 13.3799C15.2811 13.3371 15.3191 13.3029 15.3644 13.2819C15.4024 13.258 15.4435 13.2396 15.4827 13.2169C15.6171 13.1431 15.7348 13.0423 15.8284 12.9209C15.9718 12.7248 16.1183 12.5311 16.2574 12.3331C16.3028 12.2613 16.3437 12.1868 16.38 12.11C16.4117 12.0441 16.4514 11.9824 16.4983 11.9262C16.5007 11.9488 16.5007 11.9716 16.4983 11.9942C16.468 12.1722 16.4006 12.3417 16.3003 12.4919C16.1335 12.7432 15.939 12.9751 15.7205 13.1832C15.6542 13.2439 15.584 13.3002 15.5103 13.3517C15.4798 13.3788 15.4431 13.3979 15.4034 13.4072C15.3637 13.4165 15.3223 13.4158 15.2829 13.4051C15.2708 13.3984 15.2593 13.3906 15.2486 13.3818L15.2553 13.3799ZM9.38387 13.975H9.41452C9.5182 13.8951 9.64929 13.8594 9.77919 13.8758C9.76019 13.9076 9.75406 13.9303 9.73935 13.937C9.71079 13.9582 9.67859 13.974 9.64435 13.9836C9.55749 14.008 9.48023 14.0585 9.4231 14.1283C9.352 14.2024 9.28826 14.2833 9.22269 14.3624C9.15561 14.4347 9.09889 14.516 9.05414 14.6039C9.02938 14.6448 9.00064 14.6832 8.96834 14.7185C8.9638 14.6927 8.96073 14.6667 8.95914 14.6406C8.96006 14.6271 8.96382 14.614 8.97018 14.602C9.05046 14.4476 9.12891 14.2913 9.21533 14.1387C9.25687 14.0688 9.31605 14.0111 9.38694 13.9714L9.38387 13.975ZM10.0581 16.8311C10.0752 16.8109 10.0936 16.7907 10.1101 16.7698C10.226 16.627 10.3363 16.4787 10.4595 16.3408C10.566 16.2192 10.6625 16.0893 10.7482 15.9522C10.7582 15.9327 10.7662 15.9121 10.7721 15.8909C10.6781 15.9762 10.5902 16.0679 10.5091 16.1655C10.4172 16.2697 10.3253 16.3714 10.2303 16.472C10.2043 16.4968 10.1824 16.5255 10.1653 16.5571C10.1273 16.6478 10.0954 16.741 10.0617 16.8336C10.0243 16.8643 9.99998 16.9081 9.9937 16.9561C10.0294 16.9245 10.0523 16.8809 10.0581 16.8336V16.8311ZM6.80975 24.3892L6.86184 24.4671C6.9072 24.445 6.97032 24.4671 6.97645 24.3849C6.82017 24.3561 6.76256 24.2195 6.67001 24.1048L6.57011 24.141C6.62935 24.2425 6.71191 24.3284 6.81097 24.3917L6.80975 24.3892ZM18.006 23.7463V23.7549L18.0023 23.7488C18.0054 23.6001 17.9724 23.4529 17.9061 23.3197C17.8981 23.332 17.8858 23.3424 17.8858 23.3528C17.8743 23.487 17.9084 23.6211 17.9827 23.7334C17.987 23.7402 17.998 23.742 18.006 23.7457V23.7463ZM7.5495 13.1893C7.53021 13.1501 7.50288 13.1154 7.46931 13.0874C7.43573 13.0594 7.39666 13.0388 7.3546 13.0269C7.39673 13.1038 7.46739 13.161 7.55134 13.1863C7.58015 13.2696 7.60895 13.3524 7.63898 13.4351C7.64529 13.4514 7.65488 13.4662 7.66718 13.4786C7.67515 13.4872 7.68985 13.489 7.70702 13.4958L7.74992 13.4455C7.71626 13.3383 7.64453 13.2472 7.54828 13.1893H7.5495ZM14.8662 9.81109V9.81538H14.8606C14.7969 9.7759 14.7243 9.75284 14.6494 9.74824C14.5746 9.74364 14.4997 9.75765 14.4316 9.78903C14.478 9.81321 14.5317 9.81932 14.5824 9.80619C14.6749 9.78756 14.7704 9.78987 14.8619 9.81293L14.8662 9.81109ZM17.7847 22.6143V22.6186H17.7792C17.7621 22.5812 17.7372 22.5479 17.7063 22.5209C17.6753 22.4938 17.639 22.4737 17.5996 22.4617C17.5622 22.523 17.5996 22.5506 17.6346 22.5984L17.7823 22.6149L17.7847 22.6143ZM4.90306 15.7818L4.96005 15.772C4.92757 15.7487 4.9147 15.761 4.90612 15.7855H4.89631H4.90183L4.90306 15.7818ZM4.82522 15.8468L4.7719 15.867H4.76393H4.76945L4.82706 15.8468L4.82399 15.8388V15.8499L4.82522 15.8468ZM7.52192 16.9708C7.52805 16.95 7.53357 16.9292 7.5397 16.9096L7.58934 16.8483L7.57034 16.8366L7.54276 16.9132C7.53725 16.9335 7.53112 16.9537 7.5256 16.9745H7.51825H7.52192V16.9708ZM17.7283 21.4884V21.4799V21.4848V21.4884ZM7.6874 16.684L7.65002 16.6993H7.64695L7.6874 16.6822L7.68434 16.6754L7.6874 16.6858V16.684ZM4.14737 17.5629H4.14062H4.15043L4.16882 17.5941L4.24972 17.6628C4.21969 17.607 4.20191 17.5874 4.16514 17.5978L4.14737 17.5617V17.5629ZM9.91709 17.8258V17.8356C9.9168 17.8338 9.9168 17.8319 9.91709 17.8301L9.95509 17.8044L9.98083 17.7768C10.0911 17.661 10.2015 17.5451 10.3124 17.4305C10.326 17.4196 10.3414 17.4109 10.3578 17.4048C10.3498 17.463 10.3195 17.5157 10.2732 17.5519C10.1917 17.6285 10.1052 17.7002 10.0194 17.7725C10.0115 17.7792 9.9937 17.7725 9.98021 17.7725C9.97225 17.7823 9.96367 17.7915 9.95509 17.8013L9.92322 17.8252L9.91709 17.8258ZM9.97408 17.474V17.4777L10.0078 17.4624L10.0145 17.4562H10.0102L9.97592 17.471L9.97408 17.474ZM10.9333 17.1443L10.8928 17.1596L10.8885 17.1664C10.8888 17.1631 10.8888 17.1598 10.8885 17.1565L10.9302 17.1406C10.93 17.1418 10.93 17.1431 10.9302 17.1443H10.9333ZM15.8909 24.662H15.897H15.8878H15.8909ZM8.74157 18.8352C8.78018 18.7445 8.8574 18.7525 8.93831 18.7629L9.01982 18.6538C9.01063 18.6269 9.00205 18.6036 8.99653 18.5883C8.92789 18.5435 8.88989 18.6158 8.82676 18.6097C8.81389 18.5447 8.79979 18.4767 8.78508 18.4038L8.67844 18.3829L8.3481 18.4969C8.33768 18.5153 8.32052 18.5447 8.30458 18.5735C8.31745 18.584 8.32481 18.595 8.32971 18.5938C8.37322 18.5852 8.41735 18.5754 8.46025 18.5637C8.50316 18.5521 8.55341 18.5349 8.6049 18.519C8.61654 18.5447 8.62512 18.5631 8.6337 18.5803L8.20774 18.7513C8.19902 18.7263 8.19206 18.7007 8.18691 18.6747C8.18537 18.6445 8.18537 18.6142 8.18691 18.584L8.12562 18.5374L8.16362 18.4681C8.14707 18.3915 8.1342 18.3118 8.11152 18.2346C8.07866 18.1504 8.02254 18.0773 7.94972 18.0238C7.89701 17.9754 7.84001 17.9318 7.78546 17.8853C7.74437 17.8476 7.69595 17.8188 7.64322 17.8006C7.5905 17.7825 7.5346 17.7754 7.47902 17.7799C7.34051 17.7909 7.20138 17.7946 7.06287 17.8031C7.03133 17.8026 7.00002 17.8087 6.97094 17.8209C6.81692 17.8831 6.66899 17.9594 6.52905 18.0489C6.48875 18.0774 6.45595 18.1153 6.43344 18.1592C6.36234 18.3094 6.29247 18.4595 6.21892 18.6085C6.17078 18.7294 6.14363 18.8577 6.13864 18.9879C6.12393 19.1074 6.12699 19.2287 6.1227 19.3427C6.1727 19.4154 6.20271 19.4999 6.20973 19.5879C6.20803 19.6305 6.2187 19.6726 6.24045 19.7093C6.26221 19.7459 6.29411 19.7755 6.33231 19.7944C6.34212 19.8477 6.35315 19.8955 6.3605 19.9446C6.37465 20.0575 6.43144 20.1608 6.51924 20.2332C6.60665 20.3171 6.67809 20.4162 6.73007 20.5256C6.74785 20.5568 6.76378 20.5869 6.78156 20.62C6.83059 20.7045 6.88084 20.7891 6.93233 20.8768L7.09842 21.0484C7.09045 21.0772 7.0831 21.1097 7.07023 21.155C7.15542 21.2886 7.24919 21.4351 7.34664 21.584C7.42993 21.6114 7.50342 21.6626 7.55808 21.7311L7.76647 21.7777H7.95891C7.95891 21.7814 7.95891 21.7851 7.95891 21.7881L8.07597 21.7575V21.7005C8.08394 21.7005 8.09497 21.7005 8.09742 21.7042C8.12266 21.7395 8.13421 21.7827 8.12993 21.8259C8.12564 21.8691 8.10581 21.9093 8.07413 21.9389C8.02157 21.9215 7.96698 21.911 7.91172 21.9076C7.78457 21.9214 7.65627 21.8959 7.54399 21.8347L7.42631 21.8494C7.37308 21.7847 7.31488 21.7243 7.25225 21.6686C7.19096 21.6184 7.19096 21.5203 7.09719 21.4792C7.08771 21.5003 7.08112 21.5226 7.07758 21.5454C7.07283 21.704 7.11948 21.8599 7.21058 21.9898C7.26087 22.0529 7.29985 22.1242 7.3258 22.2006C7.34317 22.2381 7.36634 22.2727 7.39444 22.303V22.4035L7.4925 22.5107L7.38709 22.6131C7.40302 22.7081 7.50108 22.6842 7.54215 22.7479L7.30619 22.8172C7.30925 22.8417 7.3117 22.8619 7.31415 22.8785C7.42947 22.9141 7.55082 22.926 7.67085 22.9134C7.61876 22.9391 7.59486 22.9532 7.56912 22.963C7.52008 22.982 7.46983 22.998 7.42325 23.0139C7.41286 23.1158 7.41286 23.2185 7.42325 23.3204C7.42325 23.5937 7.43612 23.8683 7.41467 24.1404C7.39803 24.3743 7.33025 24.6017 7.21609 24.8066C7.15909 24.9077 7.10822 25.0119 7.05061 25.1216C7.09787 25.2211 7.15985 25.3128 7.23448 25.3938C7.3399 25.49 7.42693 25.6058 7.52867 25.7063C7.59928 25.7749 7.67555 25.8375 7.75666 25.8933C7.83695 25.949 7.92459 25.995 8.01039 26.0428C8.05713 26.068 8.10545 26.0901 8.15504 26.109C8.36977 26.2635 8.59881 26.3971 8.83902 26.508C8.86646 26.5226 8.89269 26.5394 8.91747 26.5582C8.9373 26.5765 8.95958 26.592 8.98366 26.6042C9.13556 26.6699 9.28137 26.7489 9.41942 26.8402C9.46661 26.8641 9.51932 26.8776 9.56897 26.8972C9.63026 26.9223 9.69154 26.9444 9.75283 26.975C9.88705 27.0455 10.0194 27.1215 10.153 27.1926C10.182 27.2046 10.2119 27.2141 10.2425 27.2208C10.2753 27.2261 10.3065 27.2387 10.3338 27.2577C10.361 27.2767 10.3837 27.3016 10.4 27.3305L10.4037 27.3274C10.2579 27.3553 10.1069 27.3337 9.9747 27.2661C9.9708 27.2637 9.9667 27.2617 9.96244 27.26C9.80002 27.2091 9.63761 27.157 9.47213 27.1086C9.33334 27.0707 9.20124 27.0116 9.0805 26.9333C8.93892 26.8377 8.79428 26.7495 8.65147 26.6551C8.63029 26.6382 8.60589 26.6259 8.57977 26.6189C8.44562 26.5829 8.3156 26.533 8.19181 26.47C8.09637 26.4455 8.00327 26.4127 7.91356 26.3719C7.84369 26.3321 7.76524 26.3106 7.6966 26.2659C7.54711 26.1944 7.40746 26.104 7.28106 25.9968C7.09969 25.8413 6.94773 25.6545 6.83242 25.4452C6.82791 25.4324 6.82128 25.4204 6.81281 25.4097C6.71402 25.2758 6.63859 25.1262 6.58972 24.9672C6.57725 24.924 6.55617 24.8837 6.52773 24.8488C6.49929 24.814 6.46409 24.7852 6.42424 24.7643C6.40285 24.7571 6.38092 24.7515 6.35866 24.7478C6.23881 24.8201 6.14732 24.9313 6.09941 25.0628C6.04425 25.2375 5.97683 25.4097 5.91248 25.5807C5.88674 25.6469 5.84568 25.7075 5.81381 25.7719C5.74455 25.9129 5.67713 26.0544 5.60849 26.1954C5.59317 26.2267 5.57355 26.2567 5.55517 26.288C5.48714 26.2751 5.46936 26.2162 5.42524 26.1881C5.51594 26.0079 5.6091 25.835 5.69123 25.6567C5.76971 25.5002 5.83868 25.3391 5.89777 25.1743C5.95354 25.0046 6.03322 24.8422 6.09022 24.6724C6.12148 24.5786 6.16622 24.4916 6.20238 24.4009C6.27087 24.22 6.38285 24.0587 6.52843 23.9314L6.6314 23.9418C6.75091 23.8456 6.91149 23.8805 7.06042 23.8125C7.06866 23.8286 7.07786 23.8441 7.088 23.8591C7.09641 23.8683 7.10564 23.8767 7.11558 23.8842C7.13816 23.8954 7.16363 23.8993 7.18853 23.8954C7.21342 23.8916 7.23653 23.8802 7.2547 23.8628C7.26641 23.8457 7.27341 23.8258 7.27503 23.8051C7.27664 23.7845 7.2728 23.7638 7.2639 23.7451C7.22345 23.6409 7.17932 23.5379 7.13274 23.4386C7.08801 23.3349 7.01493 23.2459 6.92191 23.1818C6.89806 23.1645 6.87806 23.1425 6.86319 23.1171C6.84831 23.0916 6.83888 23.0634 6.83549 23.0341C6.82813 22.9851 6.81772 22.9367 6.80668 22.8883C6.80117 22.8638 6.79994 22.8644 6.73498 22.827V23.1518C6.70867 23.1402 6.68378 23.1256 6.66082 23.1083C6.56704 23.0115 6.47695 22.9128 6.36969 22.8019C6.36479 22.7504 6.3556 22.6848 6.35192 22.618C6.36045 22.4948 6.33023 22.372 6.2655 22.2668C6.24861 22.4359 6.24738 22.6062 6.26183 22.7755C6.24343 22.7551 6.22682 22.7332 6.21218 22.7099C6.1341 22.5332 6.07135 22.3501 6.02464 22.1626C6.01619 22.1277 6.00407 22.0938 5.98848 22.0615C5.91941 21.9348 5.89176 21.7897 5.90942 21.6466C5.92658 21.5044 5.92719 21.3597 5.93393 21.2175C5.93393 21.2114 5.92474 21.2047 5.91922 21.1979L5.76049 21.3285L5.71023 21.4143C5.65262 21.4106 5.63607 21.3769 5.62075 21.3371C5.543 21.1399 5.50288 20.9299 5.50246 20.718C5.50246 20.525 5.49388 20.3319 5.49878 20.1389C5.48482 19.9774 5.51669 19.8153 5.59072 19.6712C5.6024 19.6438 5.61123 19.6153 5.61707 19.586C5.5803 19.6075 5.55578 19.613 5.54904 19.6271C5.5205 19.6674 5.4947 19.7096 5.47182 19.7534C5.43259 19.8293 5.39704 19.9066 5.35782 19.9881C5.38447 20.1097 5.36981 20.2367 5.31614 20.3491C5.28795 20.3276 5.26159 20.3172 5.24934 20.2976C5.2144 20.24 5.18805 20.1793 5.14699 20.1076C5.14366 19.7212 5.23409 19.3397 5.41053 18.9958C5.19325 19.2298 5.0483 19.5216 4.99315 19.8361C4.97376 19.8194 4.95666 19.8002 4.94228 19.7791C4.89999 19.6896 4.86138 19.5989 4.8197 19.5088C4.77991 19.3892 4.78164 19.2596 4.82461 19.1411C4.87057 18.9517 4.9196 18.7605 4.96864 18.5693C4.97967 18.5257 4.99683 18.4841 5.01154 18.4424C5.03238 18.3811 5.05689 18.3247 5.07283 18.264C5.07834 18.2438 5.06179 18.2175 5.05199 18.1831C5.0195 18.2015 4.9907 18.2083 4.97722 18.2266C4.86956 18.3652 4.78378 18.5194 4.72287 18.6839C4.70142 18.7568 4.68916 18.8322 4.67138 18.9063C4.6628 18.9437 4.65116 18.9811 4.63584 19.0363C4.5341 18.8444 4.49365 18.6483 4.40846 18.4718C4.32326 18.2953 4.28588 18.1096 4.19395 17.938C4.10201 17.7664 4.03521 17.5782 3.95553 17.3931L4.01314 17.3784C4.00931 17.2938 3.98216 17.212 3.93469 17.1418C3.90646 17.1063 3.88594 17.0653 3.87444 17.0214C3.86294 16.9775 3.86071 16.9317 3.86789 16.8869C3.88291 16.7484 3.88291 16.6086 3.86789 16.4701C3.85428 16.268 3.88309 16.0653 3.95247 15.875C3.99966 15.7524 4.03766 15.6298 4.08546 15.5073C4.11538 15.4373 4.14893 15.369 4.18598 15.3026C4.22153 15.2351 4.25891 15.1683 4.28649 15.1187L4.45749 14.9434C4.45075 14.8784 4.44523 14.8208 4.43787 14.7497C4.46423 14.7332 4.49549 14.7001 4.53042 14.6952C4.57469 14.6884 4.61615 14.6692 4.65006 14.64C4.68398 14.6107 4.709 14.5725 4.72225 14.5297L4.634 14.2717C4.63972 14.2321 4.64096 14.192 4.63768 14.1522C4.63168 14.0986 4.63663 14.0443 4.65222 13.9927C4.66782 13.9411 4.69373 13.8932 4.72838 13.8519C4.76285 13.8052 4.78955 13.7532 4.80745 13.698C4.86286 13.523 4.93576 13.354 5.02502 13.1936C5.1404 13.0225 5.24658 12.8453 5.34311 12.6629C5.39393 12.5564 5.47661 12.4684 5.57968 12.411C5.65875 12.3595 5.73413 12.3031 5.81197 12.2504C5.8346 12.2357 5.85887 12.2238 5.88429 12.2148C5.97852 12.1843 6.06683 12.1379 6.14538 12.0775C6.16742 12.0628 6.19107 12.0507 6.21586 12.0414C6.24558 12.0312 6.27365 12.0167 6.29921 11.9985C6.37644 11.93 6.46612 11.8769 6.56337 11.8422C6.69283 11.7921 6.81841 11.7325 6.93907 11.6639C7.07431 11.6046 7.20609 11.5376 7.33377 11.4634C7.40701 11.4204 7.48392 11.3839 7.5636 11.3543C7.74996 11.2666 7.93034 11.1667 8.10355 11.0553C8.1497 11.0276 8.19968 11.007 8.25187 10.994C8.28987 10.9817 8.32971 10.9762 8.36955 10.9676L8.44493 10.8665C8.40203 10.7684 8.28926 10.8052 8.21878 10.7439C8.23532 10.7274 8.24697 10.709 8.26352 10.7022C8.28469 10.6946 8.30724 10.6914 8.32971 10.693C8.53651 10.6878 8.74334 10.702 8.9475 10.7353C9.02385 10.7423 9.10074 10.7407 9.17672 10.7304C9.08049 10.6538 8.96589 10.6832 8.90889 10.5888C8.92573 10.5662 8.9494 10.5495 8.97641 10.5412C9.00343 10.5329 9.03239 10.5335 9.05904 10.5429C9.10746 10.5515 9.15527 10.5662 9.2043 10.5705C9.26654 10.5777 9.32927 10.5797 9.39184 10.5766C9.50387 10.5682 9.61651 10.574 9.72709 10.5937C9.77122 10.6017 9.81596 10.6011 9.8607 10.6054C9.99921 10.6183 10.1377 10.6324 10.2762 10.6446C10.3121 10.6483 10.3482 10.6483 10.3841 10.6446C10.4019 10.6446 10.4184 10.6262 10.4552 10.6048L10.0262 10.4411L9.82822 10.427C9.82642 10.4142 9.8273 10.4011 9.83081 10.3885C9.83432 10.376 9.84038 10.3643 9.84861 10.3543C9.85684 10.3442 9.86706 10.3359 9.87863 10.33C9.89021 10.3241 9.90288 10.3206 9.91586 10.3198C9.96065 10.3152 10.0057 10.3133 10.0507 10.3143C10.2125 10.31 10.3743 10.3039 10.5361 10.3014C10.6258 10.2968 10.7157 10.2986 10.8052 10.3069C10.903 10.3223 11.0027 10.3223 11.1006 10.3069C11.2673 10.3363 11.4211 10.3645 11.5749 10.3897C11.6207 10.3926 11.6665 10.3926 11.7122 10.3897C11.6712 10.3572 11.6577 10.3394 11.6405 10.3345C11.5369 10.3045 11.4334 10.2732 11.3286 10.2511C11.2412 10.2278 11.1584 10.1901 11.0834 10.1396C11.187 10.0924 11.2988 10.0662 11.4125 10.0624C11.5829 10.071 11.7539 10.074 11.9249 10.0752C11.9786 10.0766 12.032 10.0679 12.0824 10.0495C12.2294 9.99307 12.3818 9.95199 12.5372 9.92693C12.7233 9.90287 12.9056 9.85509 13.0796 9.78474C13.116 9.77011 13.1549 9.76262 13.1942 9.76267C13.086 9.85789 12.9672 9.94017 12.8399 10.0078C12.7294 10.0595 12.6263 10.1259 12.5335 10.2052V10.2125V10.2095C12.5687 10.2073 12.6034 10.201 12.6371 10.1905C12.8019 10.1188 12.9656 10.044 13.1274 9.96983C13.1523 9.95945 13.1759 9.94629 13.1979 9.93061C13.4195 9.77769 13.6525 9.64185 13.8947 9.52426C14.0271 9.44739 14.1677 9.38571 14.3139 9.3404C14.4985 9.28427 14.6882 9.2465 14.8802 9.22762C15.0635 9.207 15.2486 9.207 15.4318 9.22762C15.5067 9.23205 15.5791 9.25638 15.6415 9.29811H15.4441L15.4392 9.31404C15.4589 9.32517 15.4794 9.3348 15.5005 9.34285C15.6329 9.38697 15.7665 9.42681 15.897 9.474C16.0514 9.52482 16.193 9.60845 16.312 9.71916C16.3268 9.73389 16.3459 9.74355 16.3665 9.74674C16.2144 9.53393 15.9892 9.38467 15.734 9.32752C15.7991 9.30546 15.8695 9.30481 15.935 9.32569C16.0048 9.34094 16.0754 9.3522 16.1465 9.35939C16.258 9.37104 16.3696 9.37778 16.4921 9.3882C16.5656 9.49424 16.6444 9.59652 16.7281 9.69464C16.8155 9.79565 16.9105 9.88971 17.0125 9.97596C17.0058 9.85558 16.9743 9.73789 16.9199 9.63029C17.0155 9.60884 17.0725 9.68116 17.1308 9.72958C17.2429 9.813 17.3457 9.90836 17.4372 10.014C17.4574 10.0377 17.4741 10.0641 17.4869 10.0924C17.5229 10.1847 17.5715 10.2716 17.6315 10.3504C17.6513 10.375 17.6665 10.4031 17.6762 10.4332C17.7523 10.6202 17.8037 10.8163 17.8288 11.0166C17.8342 11.0521 17.8414 11.0873 17.8503 11.1221C17.8583 11.1748 17.865 11.2281 17.8705 11.2814C17.8684 11.3081 17.8684 11.335 17.8705 11.3617C17.8871 11.4639 17.881 11.5685 17.8527 11.6681C17.8301 11.8011 17.8105 11.9341 17.7915 12.0671C17.7891 12.0849 17.7854 12.1026 17.7804 12.1198C17.7317 12.3068 17.6626 12.4878 17.5745 12.6598C17.5695 12.6724 17.5633 12.6845 17.5561 12.696C17.4139 12.8809 17.3086 13.0914 17.246 13.3162L17.0008 13.5289C16.9521 13.5493 16.8988 13.5565 16.8464 13.5497C16.8464 13.5387 16.8415 13.5325 16.8464 13.5301C16.9457 13.3971 17.0456 13.2653 17.1443 13.1317C17.1659 13.1035 17.1835 13.0723 17.1963 13.0392C17.227 12.9552 17.2521 12.8688 17.2809 12.7842C17.2901 12.7589 17.3008 12.7341 17.3128 12.71C17.3741 12.5875 17.4427 12.4649 17.4911 12.3319C17.5257 12.2251 17.5503 12.1153 17.5647 12.004C17.5692 11.9574 17.558 11.9105 17.5328 11.871C17.5217 11.8871 17.5125 11.9044 17.5052 11.9225C17.4858 11.9826 17.4709 12.0441 17.4605 12.1064C17.424 12.3104 17.3473 12.5052 17.235 12.6794C17.1344 12.8633 17.0027 13.0208 16.8917 13.1948C16.8713 13.2243 16.8483 13.252 16.8231 13.2776C16.7845 13.3205 16.7453 13.3622 16.6852 13.4271C16.6476 13.4559 16.6064 13.4796 16.5626 13.4976C16.4296 13.5387 16.2936 13.5687 16.1581 13.6024C16.152 13.6024 16.144 13.5951 16.1299 13.5877C16.163 13.5626 16.1912 13.5381 16.2255 13.5154C16.3512 13.4207 16.4583 13.3037 16.5418 13.1703C16.5595 13.1447 16.5789 13.1203 16.6 13.0974C16.7587 12.9134 16.8958 12.7119 17.0088 12.4968C17.0138 12.485 17.0173 12.4726 17.0192 12.46C16.9892 12.4293 16.9671 12.449 16.9512 12.4704C16.8709 12.5789 16.7888 12.6855 16.7146 12.7983C16.6198 12.9405 16.5123 13.0739 16.3935 13.1967C16.284 13.3163 16.1605 13.4222 16.0257 13.5123C16.0105 13.522 15.9968 13.534 15.9853 13.5479C15.9421 13.6036 15.8805 13.6423 15.8114 13.6568C15.7424 13.6714 15.6704 13.6611 15.6084 13.6275C15.5281 13.6 15.4472 13.573 15.3687 13.5405C15.2197 13.4884 15.0605 13.4726 14.9042 13.4945C14.8772 13.4945 14.8508 13.5044 14.8239 13.5044C14.7641 13.5124 14.7032 13.5041 14.6477 13.4804C14.5923 13.4567 14.5443 13.4183 14.5088 13.3695L14.3777 13.3297C14.3164 13.3591 14.2631 13.391 14.2048 13.413C14.1599 13.4327 14.1117 13.4437 14.0627 13.4455C13.9609 13.4455 13.8598 13.4284 13.7452 13.4179C13.7924 13.3327 13.8641 13.2757 13.91 13.2004C13.9698 13.1359 14.0029 13.0511 14.0026 12.9632C13.9143 12.9754 13.8886 13.0533 13.8285 13.09C13.8114 13.1509 13.7795 13.2066 13.7357 13.2521C13.6918 13.2977 13.6374 13.3317 13.5772 13.3511C13.4994 13.3861 13.4204 13.4198 13.3407 13.4504C13.2996 13.4657 13.2561 13.4731 13.1832 13.4921C13.1981 13.4679 13.2156 13.4453 13.2353 13.4247C13.3958 13.2971 13.5142 13.1241 13.5748 12.9282C13.5699 12.8909 13.5644 12.851 13.5582 12.8112C13.5723 12.7499 13.5858 12.6886 13.5999 12.6273L13.5822 12.6163C13.5699 12.6291 13.5497 12.6396 13.546 12.6543C13.491 12.8493 13.4044 13.0339 13.2898 13.201C13.2538 13.2584 13.2068 13.308 13.1515 13.3471C13.0961 13.3861 13.0336 13.4137 12.9674 13.4284C12.9287 13.4387 12.8908 13.4518 12.854 13.4676C12.7988 13.4904 12.7375 13.4938 12.68 13.4774C12.7351 13.4118 12.8448 13.4375 12.8638 13.3315L12.794 13.2819C12.813 13.2206 12.8289 13.1544 12.8516 13.0919C12.8712 13.0547 12.8796 13.0126 12.8758 12.9707C12.872 12.9288 12.8561 12.889 12.8301 12.8559C12.8518 12.6542 12.7927 12.4522 12.6659 12.2939H12.6598H12.6696C12.6678 12.3294 12.67 12.365 12.6763 12.3999C12.727 12.5661 12.7373 12.742 12.7063 12.9129L12.7456 12.9742C12.7364 12.9932 12.7253 13.0122 12.7168 13.0324C12.6766 13.1327 12.6187 13.2249 12.5458 13.3045C12.505 13.3531 12.4483 13.3857 12.3858 13.3965C12.1602 13.4359 11.932 13.4582 11.703 13.4633C11.613 13.4636 11.5235 13.4753 11.4364 13.4982C11.1864 13.5716 10.9298 13.6209 10.6703 13.6453C10.6526 13.6453 10.6348 13.6496 10.6121 13.6527L10.511 13.714C10.4981 13.7149 10.4852 13.7149 10.4724 13.714C10.4319 13.706 10.3909 13.7009 10.3498 13.6986C10.2978 13.6975 10.2463 13.7088 10.1996 13.7316C10.1529 13.7544 10.1124 13.7881 10.0813 13.8298C9.94452 14.0142 9.83358 14.2165 9.75161 14.431C9.74749 14.4543 9.74626 14.478 9.74793 14.5015C9.82253 14.4357 9.8866 14.3588 9.93792 14.2735C9.99921 14.1791 10.0568 14.0829 10.1218 13.9898C10.1633 13.9271 10.2221 13.8778 10.2911 13.848C10.3601 13.8182 10.4363 13.8091 10.5104 13.8218C10.4288 13.926 10.3461 14.0247 10.2719 14.1283C10.1895 14.2359 10.1347 14.3622 10.1126 14.496C10.133 14.4863 10.1523 14.4743 10.1702 14.4605C10.2657 14.3357 10.3539 14.2056 10.4344 14.0707C10.4883 13.999 10.5441 13.9285 10.6035 13.8617C10.6483 13.8114 10.6617 13.8096 10.7426 13.8004C10.7751 13.839 10.758 13.8764 10.7365 13.9113C10.6795 14.0026 10.6139 14.0897 10.5643 14.1834C10.4549 14.3539 10.3891 14.5485 10.3725 14.7504H10.3639H10.3694C10.4176 14.7098 10.4526 14.6558 10.4699 14.5953C10.5213 14.451 10.5986 14.3172 10.6979 14.2006C10.8517 13.9916 11.0502 13.8194 11.2789 13.6968L11.3831 13.7256L11.5057 13.622H11.605L11.6509 13.6833C11.7122 13.7176 11.7931 13.6588 11.8409 13.7446C11.8338 13.7635 11.8244 13.7814 11.8127 13.7979C11.6048 14.0401 11.4287 14.3078 11.2887 14.5947C11.2759 14.6186 11.2593 14.64 11.2477 14.6645C11.2368 14.689 11.2284 14.7145 11.2225 14.7405C11.2219 14.7551 11.2231 14.7698 11.2262 14.7841C11.3623 14.583 11.4842 14.3796 11.6301 14.1957C11.7682 14.0102 11.9335 13.8465 12.1204 13.7103C12.14 13.7201 12.1529 13.7219 12.1547 13.7274C12.1762 13.7942 12.1976 13.8611 12.216 13.9285C12.2264 13.9675 12.2278 14.0083 12.22 14.0479C12.2123 14.0875 12.1956 14.1249 12.1713 14.1571C12.1219 14.2374 12.0771 14.3205 12.0371 14.4059C12.004 14.4672 11.9758 14.5371 11.9415 14.5984C11.8691 14.7256 11.8094 14.8597 11.7631 14.9986C11.8566 14.9315 11.9338 14.8444 11.9893 14.7436C12.0555 14.621 12.1247 14.5001 12.197 14.3808C12.229 14.3069 12.2876 14.2478 12.3613 14.2153C12.3494 14.247 12.3359 14.2781 12.3208 14.3085C12.2032 14.5207 12.105 14.743 12.0273 14.9728C11.9952 15.0659 11.9716 15.1617 11.9568 15.259C11.937 15.3514 11.9029 15.4402 11.8556 15.522C11.8238 15.5833 11.7993 15.6446 11.7692 15.7101C11.6749 15.7702 11.5988 15.855 11.5492 15.9553C11.4171 16.1741 11.2739 16.386 11.1202 16.5902C11.0873 16.6337 11.0512 16.6747 11.0123 16.7128C10.9393 16.7998 10.8852 16.901 10.8536 17.0101C10.8928 17.0009 10.9228 17.0033 10.9369 16.9892C11.0258 16.9004 11.1128 16.8097 11.1956 16.7159C11.2489 16.6546 11.2942 16.5878 11.3451 16.5247C11.36 16.5092 11.3769 16.4958 11.3954 16.4848C11.3383 16.6113 11.2683 16.7314 11.1864 16.8434C11.1619 16.8801 11.1331 16.9138 11.0951 16.9659C11.149 16.958 11.1625 16.9224 11.1858 16.901C11.2091 16.8795 11.2323 16.8593 11.2587 16.836L11.3543 16.8317C11.3402 16.9002 11.3081 16.9637 11.2611 17.0156C11.1999 17.0965 11.1386 17.1811 11.0699 17.2607C10.9329 17.4328 10.7807 17.5922 10.6152 17.7369C10.5214 17.8129 10.4313 17.8969 10.3375 17.9692C10.1743 18.0955 9.99729 18.2029 9.80983 18.2892C9.76033 18.3102 9.71223 18.3343 9.6658 18.3615C9.64088 18.3746 9.61941 18.3935 9.60312 18.4165C9.58683 18.4395 9.57618 18.466 9.57203 18.4939C9.60417 18.4937 9.63592 18.4867 9.66517 18.4734C9.69443 18.4601 9.72055 18.4408 9.7418 18.4166C9.78841 18.367 9.8456 18.3284 9.90912 18.3039C9.95508 18.3468 9.92505 18.4007 9.93731 18.4448C9.94019 18.4533 9.9441 18.4613 9.94896 18.4687C9.99928 18.5148 10.0296 18.5787 10.0335 18.6468C10.0374 18.715 10.0145 18.7819 9.96979 18.8334C9.94467 18.8702 9.91157 18.902 9.88767 18.94C9.84132 18.9945 9.81136 19.0611 9.80125 19.1319L9.78777 19.1423C9.78777 19.1423 9.79635 19.1423 9.79696 19.1423C9.7979 19.1385 9.7979 19.1345 9.79696 19.1307L9.95325 19.1068C9.9722 19.1147 9.98874 19.1275 10.0012 19.1439C10.0137 19.1602 10.0217 19.1795 10.0243 19.1999C10.103 19.4075 10.0964 19.6377 10.006 19.8404C9.98009 19.8932 9.97548 19.954 9.99308 20.0101C10.0029 20.0445 10.0109 20.0794 10.0213 20.1131C10.0561 20.2327 10.0751 20.3563 10.0777 20.4808C10.0812 20.5111 10.0871 20.541 10.0954 20.5703C10.2223 20.5877 10.3424 20.6382 10.4436 20.7168C10.3106 20.884 10.198 21.0665 10.1083 21.2604L10.1665 21.3174C10.2064 21.2653 10.2401 21.2182 10.2769 21.1746C10.305 21.1415 10.3381 21.1133 10.3676 21.0803L10.3639 21.0766L10.3437 21.1605C10.3643 21.162 10.3849 21.1576 10.403 21.1477C10.4212 21.1378 10.4361 21.1229 10.446 21.1048C10.4711 21.0741 10.4975 21.0435 10.5238 21.0141C10.6464 21.0588 10.6378 21.1875 10.7126 21.2592H10.845C10.8254 21.353 10.7525 21.4045 10.7034 21.4713C10.6544 21.5381 10.598 21.6043 10.541 21.6766L10.6195 21.7452L10.769 21.6263C10.8217 21.5847 10.8726 21.5405 10.929 21.5038C10.9673 21.4825 11.0086 21.4672 11.0515 21.4584C11.1642 21.3693 11.2878 21.295 11.4193 21.2371C11.4361 21.2536 11.4466 21.2755 11.4489 21.2989C11.4513 21.3223 11.4453 21.3458 11.4321 21.3652C11.4076 21.4075 11.3782 21.4474 11.3494 21.4878C11.2771 21.5908 11.2035 21.6931 11.1318 21.7943C11.1214 21.8119 11.1127 21.8306 11.1061 21.85C11.1361 21.888 11.1582 21.85 11.1858 21.8537L11.2084 21.8825H11.1999L11.2054 21.8776C11.2618 21.7924 11.3231 21.7097 11.3739 21.6208C11.4252 21.532 11.4869 21.4497 11.5578 21.3757C11.5791 21.3596 11.6021 21.346 11.6264 21.3352C11.6209 21.4284 11.5523 21.4627 11.5253 21.5191C11.4983 21.5755 11.464 21.638 11.4279 21.7103C11.4584 21.723 11.491 21.7301 11.5241 21.7311C11.5715 21.7186 11.6175 21.7012 11.6614 21.679C11.7237 21.6386 11.7966 21.6173 11.871 21.6178C11.9206 21.5693 11.9635 21.524 12.0101 21.4829C12.0211 21.4731 12.0426 21.4756 12.0671 21.4713C12.0806 21.5393 12.0297 21.5712 12.0058 21.6153C11.9819 21.6594 11.9629 21.714 11.9372 21.7606C11.9114 21.8071 11.8759 21.8506 11.8434 21.904C11.8501 21.9175 11.8599 21.9358 11.8746 21.9653C11.8563 22.0265 11.8354 22.0921 11.8134 22.1602C11.8024 22.181 11.7991 22.2051 11.8041 22.2281C11.809 22.2512 11.8218 22.2718 11.8403 22.2864L12.0107 22.2098C12.1118 22.105 12.2142 21.9935 12.3784 22.0339C12.5427 21.9616 12.5427 21.9616 12.6426 21.9849C12.6365 22.0462 12.5733 22.075 12.5507 22.116L12.4741 22.3158L12.7112 22.5101L12.8547 22.4586C12.8583 22.4844 12.8645 22.5199 12.8712 22.5677L12.9815 22.6088C12.9815 22.6566 12.9778 22.7044 12.9766 22.7418L13.1825 22.922C13.2477 22.8688 13.3224 22.8284 13.4026 22.8031C13.4883 22.7759 13.5758 22.7542 13.6643 22.7381C13.766 22.7933 13.8806 22.8527 13.9934 22.9177C14.1071 22.9907 14.2335 23.0419 14.366 23.0685C14.375 23.0696 14.3838 23.0717 14.3924 23.0746L14.7742 23.2315C14.7595 23.2842 14.7086 23.2817 14.67 23.2983C14.6314 23.3148 14.5977 23.3314 14.5474 23.3534C14.5648 23.372 14.5865 23.3859 14.6106 23.3939C14.6347 23.4019 14.6604 23.4038 14.6853 23.3994C14.7121 23.3958 14.7381 23.3882 14.7626 23.3767C14.8987 23.3322 15.038 23.2982 15.1793 23.275C15.21 23.2664 15.2406 23.2603 15.2621 23.3105C15.2284 23.321 15.1959 23.3344 15.1628 23.3412C15.12 23.3446 15.0786 23.358 15.042 23.3804C15.0054 23.4027 14.9745 23.4334 14.952 23.4699C14.9464 23.4791 14.9299 23.4822 14.9182 23.4883C14.8888 23.5202 14.857 23.5496 14.83 23.5845C14.8141 23.6029 14.8024 23.6243 14.7797 23.6574C14.8093 23.6577 14.8385 23.6506 14.8647 23.6366C14.8908 23.6227 14.913 23.6025 14.9293 23.5778C14.925 23.5471 14.9213 23.5165 14.917 23.4852C14.9384 23.4913 14.9608 23.4932 14.9828 23.4907C15.0049 23.4881 15.0263 23.4813 15.0457 23.4705C15.1285 23.4368 15.213 23.4092 15.2982 23.381C15.333 23.3742 15.3683 23.3709 15.4037 23.3712C15.3902 23.3914 15.3865 23.4037 15.381 23.4049C15.2764 23.4311 15.1813 23.4861 15.1064 23.5637C15.0581 23.603 15.0201 23.6535 14.9955 23.7108C14.9498 23.7984 14.8835 23.8737 14.8024 23.9302C14.7442 23.9789 14.6889 24.0311 14.6369 24.0865C14.5759 24.1466 14.5385 24.2266 14.5315 24.312L14.4966 24.3328V24.339V24.3365L14.5315 24.3163C14.6988 24.1808 14.8649 24.0448 15.0341 23.9118C15.0889 23.8602 15.1557 23.8229 15.2284 23.8033C15.2179 23.8376 15.2112 23.8609 15.2045 23.8836L15.1622 23.9271L15.1781 23.9375L15.2014 23.8805C15.2146 23.8831 15.2281 23.8831 15.2412 23.8805C15.4322 23.7711 15.639 23.6917 15.8541 23.6452C15.8763 23.641 15.8972 23.632 15.9154 23.6188C15.9594 23.5866 16.0139 23.5722 16.068 23.5784C16.095 23.5813 16.1223 23.5803 16.1489 23.5753C16.3131 23.5505 16.4788 23.5376 16.6447 23.5367C16.8156 23.5275 16.9847 23.4981 17.1485 23.4491C17.2653 23.4174 17.3874 23.4101 17.5071 23.4276L17.6536 23.522V23.4435C17.6272 23.3859 17.531 23.3823 17.5451 23.3007L17.4115 23.343C17.283 23.2829 17.1366 23.2735 17.0014 23.3167C16.8293 23.3693 16.6501 23.3958 16.4701 23.3951C16.434 23.3943 16.398 23.3991 16.3634 23.4092C16.286 23.4332 16.2033 23.4346 16.125 23.4135C16.0599 23.4018 15.9938 23.3969 15.9277 23.3988C15.9228 23.3755 15.9203 23.3626 15.9173 23.3479C15.9295 23.3418 15.9418 23.3295 15.9522 23.3314C16.0308 23.3447 16.1103 23.3527 16.19 23.3553L16.3739 23.3246C16.524 23.2995 16.6748 23.2762 16.8249 23.2499C16.9046 23.2358 16.9843 23.2211 17.0621 23.2008C17.246 23.1536 17.4256 23.1028 17.5941 23.0568C17.6787 22.9594 17.6107 22.8729 17.6174 22.7908C17.578 22.7332 17.531 22.6813 17.4777 22.6364L17.4164 22.7871C17.2681 22.8313 17.1338 22.8668 17.0033 22.9097C16.9062 22.949 16.8005 22.9619 16.6968 22.9471L16.6447 22.906C16.5075 22.9232 16.3781 22.9459 16.2488 22.9545C16.1477 22.9612 16.0453 22.9502 15.9338 22.9471L15.9479 22.8742L16.4229 22.7902L16.3506 22.7289L16.2482 22.7712H15.9614C15.9645 22.7501 15.9703 22.7296 15.9785 22.7099C16.0113 22.6624 16.0308 22.6069 16.0349 22.5493C15.9753 22.5766 15.9238 22.6188 15.8854 22.6719C15.7133 22.8715 15.4824 23.0115 15.2258 23.0716C14.9692 23.1317 14.7002 23.109 14.4574 23.0066C14.4151 22.9906 14.3765 22.9673 14.3348 22.9508C14.2422 22.9157 14.1563 22.8649 14.081 22.8006C14.0198 22.7485 13.945 22.7124 13.8855 22.6578C13.8092 22.5885 13.7389 22.5128 13.6753 22.4317C13.614 22.3508 13.5613 22.2594 13.5166 22.1908C13.5013 22.0817 13.4829 21.9941 13.478 21.9052C13.4541 21.7443 13.4811 21.5799 13.5552 21.4351C13.603 21.356 13.6312 21.2641 13.6778 21.182C13.7299 21.0976 13.8043 21.0293 13.8929 20.9846C13.9361 20.9602 13.9814 20.9397 14.0283 20.9234C14.1301 20.8884 14.2324 20.8565 14.3348 20.8253C14.3572 20.8199 14.3799 20.816 14.4028 20.8136L14.3703 20.8854C14.3054 20.9607 14.2527 21.0202 14.2018 21.0809C14.1791 21.1141 14.1544 21.1458 14.1276 21.1759C14.0427 21.2514 13.9902 21.3568 13.9811 21.47C13.9618 21.5678 13.9654 21.6687 13.9916 21.7648C14.0608 21.8402 14.1368 21.9285 14.2196 22.01C14.2573 22.041 14.2984 22.0677 14.3421 22.0897L14.8514 22.1142C14.8563 22.1363 14.8612 22.1559 14.8655 22.1755C14.9562 22.1755 14.9562 22.1755 15.1469 21.9695C15.1183 21.9798 15.0893 21.9886 15.0598 21.9959C14.8639 22.0425 14.6636 22.0683 14.4623 22.0731C14.4447 22.0721 14.4274 22.0686 14.4108 22.0627C14.4034 22.0627 14.3991 22.0498 14.3887 22.0376C14.3922 22.027 14.3969 22.0169 14.4028 22.0075C14.478 21.9452 14.5603 21.8919 14.648 21.8488C14.8361 21.7612 14.9912 21.6156 15.0905 21.4333C15.1395 21.3634 15.1959 21.2991 15.2492 21.2329C15.2577 21.2195 15.27 21.209 15.2846 21.2028C15.2991 21.1965 15.3152 21.1948 15.3307 21.1979V21.1949C15.3062 21.2408 15.2841 21.2886 15.2566 21.3334C15.229 21.3781 15.1916 21.4284 15.156 21.4792C15.156 21.4982 15.156 21.5203 15.1622 21.5405C15.1712 21.5977 15.1665 21.6562 15.1486 21.7113C15.1307 21.7664 15.1001 21.8164 15.0592 21.8574C15.023 21.896 14.9863 21.9334 14.9495 21.9708L14.9458 21.9763V21.9677C15.0836 21.9617 15.2156 21.9112 15.3221 21.8237C15.3608 21.7937 15.3969 21.7624 15.4361 21.7262L15.5796 21.6938C15.5713 21.72 15.5611 21.7457 15.5489 21.7704C15.5164 21.8237 15.4809 21.8758 15.4472 21.9285C15.4261 21.9584 15.4126 21.9931 15.408 22.0294C15.4034 22.0657 15.4078 22.1026 15.4208 22.1369C15.4428 22.1406 15.4654 22.1371 15.4852 22.1268C15.5051 22.1165 15.5209 22.1 15.5305 22.0799C15.6017 21.9825 15.6656 21.8801 15.7217 21.7734C15.7974 21.6159 15.9114 21.48 16.0533 21.3781L16.057 21.3849L16.0502 21.3818L16.3267 21.2261L16.3879 21.2739C16.3812 21.323 16.3751 21.3695 16.3689 21.4155L16.3892 21.4222L16.4609 21.3101C16.4964 21.2935 16.5504 21.2721 16.6012 21.2451C16.6425 21.228 16.6805 21.2037 16.7134 21.1734C16.761 21.1221 16.8218 21.0849 16.8892 21.0659C16.9565 21.0469 17.0278 21.0467 17.0952 21.0655C17.1678 21.0812 17.2393 21.1017 17.3091 21.1268C17.3851 21.1955 17.3839 21.2764 17.4176 21.3462C17.4176 21.3303 17.4219 21.3144 17.4243 21.2929L17.5402 21.1936L17.6867 21.2488L17.7516 21.3585L17.8129 21.4014C17.8068 21.361 17.7798 21.3591 17.7516 21.3616C17.77 21.3168 17.7878 21.2721 17.8049 21.2286C17.8217 21.2202 17.8411 21.2188 17.8589 21.2247C17.8767 21.2305 17.8914 21.2432 17.8999 21.2598C17.9467 21.3248 17.9877 21.3937 18.0225 21.4658C18.0624 21.561 18.0968 21.6584 18.1255 21.7575C18.1404 21.809 18.1511 21.8617 18.1574 21.915C18.1606 21.9722 18.1839 22.0264 18.2229 22.0682L18.3823 22.1295C18.4048 22.1207 18.424 22.1051 18.4373 22.0849C18.4505 22.0647 18.4572 22.0409 18.4564 22.0167C18.4675 21.8942 18.4785 21.7759 18.4865 21.6551C18.5021 21.5613 18.4836 21.465 18.4344 21.3836C18.4283 21.375 18.4344 21.3585 18.4344 21.3462C18.503 21.3266 18.5392 21.3364 18.5637 21.3947C18.5899 21.4565 18.6092 21.521 18.6213 21.5871C18.6377 21.68 18.6485 21.7737 18.6538 21.8678C18.658 21.9293 18.6547 21.991 18.644 22.0517C18.5991 22.2553 18.4844 22.4367 18.3198 22.5647C18.2504 22.6142 18.1775 22.6587 18.1016 22.6977L17.9386 22.7222C17.9275 22.7369 17.9153 22.7547 17.9055 22.7681C17.9052 22.7792 17.9068 22.7902 17.9104 22.8006C17.9527 22.8619 17.9974 22.9232 18.0378 22.9882C18.0854 23.0544 18.1072 23.1357 18.0991 23.2168C18.0877 23.324 18.0989 23.4323 18.1322 23.5349C18.1672 23.6648 18.1855 23.7984 18.215 23.9296C18.2315 24.0037 18.2579 24.0754 18.2763 24.149C18.2928 24.2137 18.3041 24.2797 18.31 24.3463C18.2275 24.2644 18.16 24.1685 18.1108 24.0632C18.0375 24.0441 17.9727 24.0009 17.9269 23.9406H17.9202H17.9306C17.9244 23.9691 17.9253 23.9987 17.9332 24.0268C17.9411 24.0549 17.9558 24.0807 17.9759 24.1018C18.0587 24.2299 18.1426 24.3561 18.226 24.4836C18.2851 24.595 18.3175 24.7186 18.3204 24.8446C18.3355 25.0008 18.3665 25.155 18.4129 25.3049C18.4238 25.3343 18.4328 25.3644 18.4399 25.395C18.4745 25.5618 18.5299 25.7237 18.6048 25.8767C18.6393 25.959 18.6693 26.0431 18.6949 26.1286C18.7463 26.2714 18.796 26.4148 18.8511 26.5576C18.8788 26.6133 18.9103 26.667 18.9455 26.7182C18.8258 26.6525 18.7146 26.5722 18.6146 26.4792C18.5202 26.4007 18.4307 26.3192 18.3247 26.2279C18.3547 26.3338 18.3901 26.4381 18.4307 26.5405H18.4344H18.4276L18.4681 26.5172C18.5784 26.6008 18.6809 26.6941 18.7745 26.796C18.8119 26.8353 18.8462 26.8769 18.8861 26.9131C18.9699 26.9951 19.0235 27.1032 19.0381 27.2195C19.0597 27.3831 19.0514 27.5493 19.0136 27.7099C18.9903 27.8471 18.9756 27.9856 18.9566 28.1235C18.9523 28.1542 18.9449 28.1848 18.9431 28.194C18.8413 28.2976 18.7543 28.3871 18.6654 28.4747C18.6393 28.4982 18.6108 28.5187 18.5802 28.536C18.4393 28.6243 18.2971 28.7107 18.1555 28.7977C18.1446 28.8057 18.1329 28.8125 18.1206 28.818C17.9857 28.8658 17.8505 28.9127 17.7148 28.9589C17.7027 28.9602 17.6904 28.959 17.6787 28.9552C17.6088 28.9136 17.6462 28.8602 17.6603 28.8039L17.591 28.723C17.569 28.658 17.6143 28.5765 17.5163 28.5391C17.501 28.6276 17.4918 28.7171 17.4887 28.8069C17.4738 28.8937 17.4307 28.9732 17.3661 29.0331C17.2173 29.0924 17.0587 29.1233 16.8985 29.1244C16.8679 29.1253 16.8373 29.1284 16.8072 29.1336C16.7017 29.1557 16.5976 29.1808 16.4921 29.2028C16.4223 29.2176 16.3512 29.2292 16.2635 29.2457C16.2005 29.214 16.1294 29.2018 16.0594 29.2108C16.028 29.2141 15.9961 29.2104 15.9663 29.1998C15.8468 29.1648 15.7279 29.1268 15.5845 29.0827L15.4925 28.9503H15.4343C15.4141 28.9142 15.3926 28.8768 15.373 28.8406C15.2504 28.8609 15.2946 28.9742 15.2468 29.0361C15.223 29.0485 15.1964 29.0542 15.1697 29.0525C15.143 29.0507 15.1173 29.0417 15.0954 29.0263C15.0075 28.9712 14.9093 28.9347 14.8067 28.9191C14.7666 28.9125 14.7291 28.8947 14.6988 28.8677C14.6684 28.8407 14.6463 28.8056 14.6351 28.7665C14.5456 28.5457 14.4793 28.3163 14.4371 28.0819C14.4235 27.9427 14.4402 27.8021 14.4862 27.67C14.4984 27.632 14.5119 27.5946 14.526 27.553C14.4982 27.5591 14.4721 27.5714 14.4496 27.5889C14.4272 27.6064 14.4089 27.6286 14.3961 27.6541C14.3112 27.7939 14.2764 27.9583 14.2974 28.1205C14.3105 28.2137 14.3285 28.3062 14.3513 28.3975C14.3556 28.419 14.3581 28.4416 14.3624 28.4662L14.3096 28.5642C14.3274 28.6255 14.3452 28.6899 14.3666 28.764C14.3439 28.7676 14.3207 28.7676 14.298 28.764C14.2606 28.7499 14.2251 28.7291 14.1822 28.7076C14.1594 28.6728 14.1298 28.6429 14.0953 28.6196C14.0608 28.5964 14.022 28.5802 13.9811 28.5722C13.8825 28.5422 13.7869 28.5023 13.6906 28.4643C13.6691 28.4538 13.6486 28.4412 13.6293 28.4269L13.4216 28.0745C13.3824 28.0745 13.3897 28.1033 13.3836 28.1217C13.3774 28.1401 13.3707 28.1646 13.3658 28.183C13.3713 28.229 13.3762 28.2725 13.3817 28.3166C13.1905 28.273 13.0132 28.1824 12.8657 28.0531C12.8571 28.0102 12.8473 27.9617 12.8357 27.9023L12.6739 27.8625L12.6929 27.993C12.6879 27.9961 12.6794 28.0059 12.6751 28.004C12.6138 27.9826 12.5488 27.9599 12.4912 27.9427C12.3909 27.8002 12.3027 27.6496 12.2277 27.4923C12.1627 27.3741 12.1189 27.2455 12.0984 27.1123C12.0836 27.0332 12.0757 26.9523 12.064 26.8726C12.064 26.8647 12.0554 26.8579 12.045 26.8408C12.0081 27.0141 12.0102 27.1936 12.0512 27.366C12.1045 27.5303 12.1529 27.6964 12.205 27.8674C12.1803 27.8738 12.1545 27.8751 12.1292 27.8713C12.1039 27.8675 12.0797 27.8587 12.0579 27.8453C12.0009 27.8177 11.9464 27.784 11.8894 27.7601C11.8209 27.7283 11.7507 27.7005 11.6791 27.6768C11.5792 27.6204 11.5529 27.5094 11.4953 27.4187C11.457 27.3376 11.4125 27.2595 11.3623 27.1852C11.3132 27.2293 11.3543 27.2882 11.3151 27.336C11.1701 27.2718 11.0346 27.1881 10.9124 27.0872C10.8959 27.0112 10.8787 26.9419 10.8664 26.8714C10.8542 26.8009 10.8897 26.7397 10.834 26.6753C10.8153 26.6893 10.8008 26.7081 10.7921 26.7297C10.7834 26.7513 10.7807 26.7749 10.7843 26.7979C10.7916 26.8556 10.7782 26.914 10.7463 26.9627C10.5038 26.8927 10.2823 26.7639 10.1016 26.5877C10.1336 26.3824 10.2343 26.194 10.3872 26.0532C10.5092 25.9201 10.6418 25.7971 10.7837 25.6855C10.8282 25.647 10.8692 25.6048 10.9063 25.5592C10.9112 25.5041 10.9798 25.4495 10.9584 25.3613C10.7342 25.608 10.47 25.8152 10.177 25.9742C10.1339 25.8571 10.1011 25.7365 10.0789 25.6138C10.0409 25.4949 10.0237 25.3686 9.99431 25.2295L9.90728 25.3521C9.93192 25.5996 9.99241 25.8421 10.0869 26.0722C10.0053 26.2359 9.92812 26.3915 9.84844 26.5527C9.71465 26.5092 9.59305 26.4346 9.49358 26.3351C9.37976 26.309 9.27564 26.2512 9.19327 26.1684C9.0811 26.0723 8.98254 25.9614 8.90031 25.8387C8.87886 25.8099 8.85128 25.786 8.82982 25.7572C8.78692 25.7002 8.74525 25.6414 8.70725 25.5825C8.68212 25.5457 8.66128 25.5059 8.63554 25.4691C8.55014 25.3575 8.50909 25.2182 8.52032 25.0781C8.52963 24.854 8.56354 24.6316 8.62144 24.415C8.65705 24.2668 8.70863 24.123 8.77528 23.9859C8.78209 23.9742 8.78744 23.9616 8.79121 23.9486C8.84009 23.7947 8.91357 23.6499 9.00879 23.5195C9.01686 23.5112 9.0231 23.5013 9.02711 23.4905C9.03111 23.4796 9.0328 23.468 9.03205 23.4565C9.03129 23.4449 9.02813 23.4337 9.02275 23.4234C9.01737 23.4132 9.0099 23.4041 9.00082 23.397C8.97654 23.4155 8.95379 23.436 8.93279 23.4583C8.81058 23.6191 8.70772 23.7937 8.62635 23.9786C8.54958 24.151 8.48806 24.3299 8.44248 24.513C8.41235 24.6141 8.37633 24.7134 8.33461 24.8103C8.31255 24.7649 8.30029 24.7441 8.29171 24.7214C8.27026 24.6669 8.25371 24.6111 8.23042 24.5578C8.19211 24.4465 8.18847 24.3261 8.22 24.2127C8.25745 24.0281 8.32058 23.8497 8.40755 23.6826C8.46243 23.5851 8.52515 23.4922 8.59509 23.4049C8.68948 23.2967 8.76322 23.172 8.81266 23.0372C8.81648 23.0243 8.81813 23.0108 8.81757 22.9974C8.81419 22.9858 8.80902 22.9748 8.80224 22.9649C8.73744 22.9915 8.68467 23.041 8.65393 23.104C8.61966 23.1618 8.57595 23.2133 8.52461 23.2566C8.49887 23.2811 8.47558 23.3087 8.45045 23.3344C8.42033 23.3694 8.38286 23.3972 8.34074 23.416C8.3769 23.2971 8.40816 23.1757 8.45167 23.0593C8.51296 22.8999 8.58283 22.7449 8.64718 22.5873C8.66373 22.5469 8.67354 22.5028 8.68641 22.4611C8.69254 22.4384 8.69867 22.4157 8.70541 22.3924C8.72196 22.3814 8.74708 22.3734 8.75321 22.3581C8.78999 22.2693 8.82247 22.1785 8.85618 22.0884C8.85986 22.0737 8.86353 22.0596 8.8666 22.0449H8.8525C8.8525 22.0609 8.85618 22.0768 8.85863 22.0927C8.8351 22.1177 8.81454 22.1452 8.79734 22.1749C8.76425 22.2478 8.73605 22.3232 8.70786 22.3973L8.69131 22.466C8.67905 22.4782 8.66128 22.4881 8.65454 22.5028C8.59518 22.6242 8.51031 22.7315 8.40571 22.8172C8.33672 22.8884 8.25307 22.9438 8.16055 22.9796C8.13363 22.9918 8.10402 22.997 8.07453 22.9947C8.04504 22.9923 8.01664 22.9825 7.99201 22.9661C8.00901 22.8919 8.05262 22.8265 8.11458 22.7822C8.1865 22.7216 8.24441 22.6461 8.28436 22.561C8.37261 22.4053 8.46393 22.2496 8.5387 22.0872C8.63614 21.886 8.74649 21.6913 8.86905 21.5044C8.88769 21.4682 8.90367 21.4307 8.91685 21.3922C8.89005 21.3961 8.86375 21.4029 8.8384 21.4124C8.71714 21.4908 8.6183 21.5994 8.55157 21.7275C8.50222 21.8109 8.44648 21.8904 8.38487 21.9653C8.37128 21.9295 8.36582 21.8911 8.36889 21.8529C8.37197 21.8148 8.3835 21.7778 8.40264 21.7446C8.52032 21.5136 8.64044 21.2825 8.76057 21.0527C8.78141 21.0134 8.8096 20.9779 8.83228 20.9393C8.85495 20.9007 8.88192 20.8455 8.90766 20.7959L8.86231 20.745C8.77957 20.7609 8.74586 20.8333 8.67538 20.8945C8.67905 20.8343 8.69668 20.7758 8.72686 20.7236C8.7477 20.6788 8.76608 20.6335 8.78815 20.5838L8.94627 20.5262C9.00082 20.4441 9.11053 20.3957 9.13382 20.2988C9.13382 20.1762 9.03392 20.137 8.97692 20.0537C8.97385 20.0249 8.96895 19.985 8.96405 19.9421L8.90276 19.9072L8.94505 19.8594L8.90889 19.8447H8.91195L8.8096 19.7221L8.84086 19.6798L8.94627 19.6964C9.00756 19.6749 9.02411 19.6455 9.05537 19.4959L9.16936 19.4163C9.14853 19.3832 9.13566 19.3617 9.12095 19.3378C9.05966 19.3458 8.99469 19.377 8.94443 19.3157L8.7287 19.4818L8.54483 19.3734C8.63065 19.287 8.71089 19.1953 8.78508 19.0988C8.8525 19.0013 8.9763 18.9505 9.01001 18.8236C8.98752 18.8218 8.9649 18.825 8.94373 18.8328C8.92257 18.8406 8.90336 18.853 8.88744 18.869C8.86612 18.8556 8.84328 18.8449 8.81941 18.8371C8.7929 18.8346 8.76623 18.8346 8.73973 18.8371L8.74157 18.8352Z" fill="#F6F6F6"/>
<path d="M16.8645 20.8752L16.8718 20.8801V20.8728H16.8633L16.8645 20.8752ZM18.1105 17.8108C18.1178 17.8782 18.1595 17.9371 18.1203 18.0124C18.0969 18.0336 18.0716 18.0527 18.0449 18.0694C18.0168 18.0838 17.9924 18.1045 17.9737 18.13C17.955 18.1554 17.9424 18.1848 17.937 18.2159C17.9229 18.268 17.9147 18.3214 17.9125 18.3753C17.918 18.4498 17.9018 18.5243 17.8659 18.5898C17.8659 18.6051 17.8659 18.6155 17.8659 18.6229C17.9131 18.7197 17.9211 18.83 17.9628 18.9293C18.0122 19.0401 18.0719 19.146 18.1411 19.2456C18.2741 19.4476 18.3896 19.6606 18.4862 19.8824C18.5084 19.9459 18.5236 20.0117 18.5315 20.0785C18.4788 20.1735 18.4365 20.2575 18.3863 20.3359C18.358 20.3764 18.3242 20.4127 18.2858 20.4438C18.1632 20.5541 18.0363 20.6626 17.8978 20.7833L17.763 20.8293C17.7017 20.9347 17.763 21.0548 17.7121 21.1713C17.6962 21.1498 17.679 21.1363 17.6741 21.1192C17.6594 21.0628 17.6508 21.0046 17.6349 20.9488C17.63 20.9316 17.6098 20.9181 17.5846 20.8875C17.5736 20.9488 17.5656 20.9905 17.557 21.0358L17.4449 21.0861L17.413 21.0622C17.4093 21.0591 17.4075 21.0542 17.4044 21.0524C17.386 21.0401 17.3683 21.0193 17.348 21.0174C17.2322 21.007 17.1446 20.9022 17.0202 20.9243C16.9589 20.9347 16.8976 20.9439 16.8099 20.9574L16.6579 20.9304L16.6058 20.9751L16.5029 20.9243C16.4933 20.823 16.4502 20.7279 16.3803 20.654C16.3141 20.5835 16.2786 20.4848 16.1921 20.4376C16.1217 20.4646 16.1364 20.5333 16.0996 20.5792C15.9727 20.6362 15.9157 20.7631 15.8416 20.874C15.7919 20.9488 15.7466 21.0266 15.6988 21.1026C15.634 21.1927 15.5503 21.2676 15.4536 21.322C15.466 21.2179 15.5128 21.1208 15.5866 21.0462C15.635 20.9997 15.6798 20.9494 15.7276 20.9022C15.8005 20.8226 15.857 20.7292 15.8937 20.6276C15.9347 20.5051 15.9953 20.39 16.0732 20.2869C16.1076 20.1986 16.0732 20.103 16.1241 20.0203C16.1689 19.9479 16.2032 19.8695 16.243 19.7917L16.4018 19.6482C16.4032 19.7344 16.3706 19.8176 16.311 19.8799C16.311 19.9559 16.311 20.0276 16.311 20.0993C16.31 20.1173 16.3129 20.1353 16.3196 20.152C16.3625 20.2403 16.406 20.3286 16.4532 20.415C16.4845 20.4763 16.5225 20.5277 16.555 20.5792C16.6402 20.589 16.6886 20.5308 16.7499 20.5069C16.8143 20.4775 16.8772 20.4445 16.938 20.4082C17.1205 20.4358 17.3054 20.4444 17.4896 20.434C17.462 20.4953 17.4032 20.4953 17.3621 20.5259C17.375 20.5559 17.3879 20.5872 17.3959 20.6074C17.4663 20.6074 17.5282 20.6074 17.5895 20.6044C17.7071 20.6082 17.8221 20.5692 17.9131 20.4946C18.032 20.3862 18.1583 20.2826 18.2943 20.1612L18.314 20.1073L18.3979 20.0423C18.2895 19.7442 18.138 19.4636 17.9481 19.2094C17.9131 19.1806 17.8721 19.1481 17.8255 19.1101L17.8567 19.0488C17.812 18.9434 17.7648 18.8282 17.7139 18.7148C17.6465 18.5634 17.5632 18.4176 17.5099 18.2613C17.4396 18.0382 17.4065 17.805 17.4118 17.5712C17.4118 17.5221 17.4283 17.4737 17.4314 17.4247C17.4425 17.3228 17.4425 17.2201 17.4314 17.1182C17.4275 17.0784 17.4317 17.0382 17.4437 17C17.4467 16.9818 17.4561 16.9654 17.4701 16.9535C17.4841 16.9416 17.5019 16.935 17.5203 16.935C17.5632 16.9558 17.5668 16.9963 17.5705 17.0373C17.5791 17.1268 17.5889 17.2163 17.5938 17.3064C17.5964 17.3709 17.6143 17.434 17.6459 17.4903C17.6758 17.4304 17.6869 17.3629 17.6778 17.2966C17.6698 17.2325 17.6719 17.1676 17.6839 17.1042C17.766 17.1232 17.785 17.2083 17.8555 17.2457L18.0394 17.2359C18.0499 17.2075 18.0587 17.1784 18.0657 17.1489C18.0854 17.0349 18.1093 16.9209 18.1191 16.8057C18.1266 16.7387 18.1191 16.6708 18.097 16.6071C18.0501 16.467 17.9906 16.3314 17.9193 16.202C17.875 16.1151 17.7984 16.0491 17.706 16.0181L17.633 16.0291C17.5852 16.0028 17.5681 15.963 17.5767 15.8912L17.6907 15.8667C17.7061 15.8537 17.7182 15.8373 17.7262 15.8188C17.7342 15.8003 17.7378 15.7802 17.7366 15.7601C17.7403 15.6749 17.7477 15.5891 17.7446 15.5045C17.7415 15.4148 17.7245 15.3261 17.6943 15.2416C17.6539 15.1282 17.633 15.0075 17.6036 14.8904C17.5534 14.69 17.4982 14.4908 17.4529 14.2892C17.4317 14.1881 17.3975 14.0903 17.3511 13.998C17.325 13.9429 17.3091 13.8835 17.3039 13.8228C17.3346 13.8509 17.3505 13.8595 17.3572 13.873C17.4252 13.9894 17.4866 14.1095 17.5411 14.2328C17.6171 14.4254 17.6726 14.6255 17.7066 14.8297C17.7244 14.9358 17.7538 15.0406 17.7752 15.146C17.7967 15.2514 17.8181 15.3568 17.8316 15.4635C17.8451 15.5701 17.8862 15.689 17.907 15.8036C17.9346 15.9296 17.9778 16.0517 18.0357 16.167C18.0756 16.2475 18.1086 16.3311 18.1344 16.4171C18.1785 16.582 18.2208 16.7475 18.2729 16.9074C18.2991 16.9745 18.3309 17.0393 18.3679 17.1011C18.3679 17.1973 18.3679 17.285 18.3679 17.3677C18.367 17.4174 18.3551 17.4664 18.333 17.511C18.311 17.5556 18.2794 17.5948 18.2404 17.6257C18.1826 17.6754 18.138 17.7385 18.1105 17.8096V17.8108Z" fill="#F6F6F6"/>
<path d="M16.949 16.9977C16.987 16.9431 17.0237 16.888 17.0642 16.8352C17.0752 16.8212 17.0985 16.8162 17.1389 16.7954L16.9851 17.1852L16.8012 17.3219C16.7044 17.3936 16.6076 17.4659 16.5095 17.5364C16.4521 17.593 16.3787 17.6306 16.2993 17.6443V17.6479C16.3226 17.6222 16.344 17.5946 16.3692 17.5713C16.4494 17.5094 16.5219 17.438 16.5849 17.3587C16.5357 17.3675 16.4896 17.3886 16.4507 17.4199C16.4096 17.4475 16.3698 17.4769 16.3281 17.5057L16.1957 17.6001C16.2001 17.5708 16.2084 17.5421 16.2202 17.5149C16.2539 17.4677 16.2913 17.4236 16.3428 17.3599C16.3079 17.366 16.2895 17.3636 16.2815 17.3709C16.2469 17.4059 16.2052 17.433 16.1592 17.4505C16.1132 17.4679 16.064 17.4753 16.0149 17.472C15.9916 17.4735 15.9686 17.4776 15.9463 17.4843C15.8419 17.4223 15.7226 17.3897 15.6012 17.3899C15.5436 17.3807 15.4855 17.3746 15.4272 17.3715C15.3604 17.3678 15.2929 17.3672 15.2261 17.3678C15.1499 17.3735 15.0733 17.3751 14.9969 17.3727C14.7718 17.3596 14.546 17.3803 14.327 17.434C14.1376 17.4733 13.9507 17.5223 13.7644 17.5732C13.7035 17.5955 13.6382 17.6031 13.5738 17.5952C13.4561 17.6265 13.3654 17.7239 13.2293 17.689L13.0884 17.5094L13.1227 17.442C13.2325 17.4867 13.3539 17.4942 13.4684 17.4635C13.4869 17.4342 13.5112 17.4091 13.5398 17.3895C13.5683 17.3699 13.6005 17.3563 13.6345 17.3495C13.7447 17.3114 13.8501 17.2604 13.9483 17.1975C14.0494 17.1319 14.1542 17.0749 14.2547 17.0038C14.3475 16.9511 14.4447 16.9066 14.5452 16.8708C14.5869 16.8978 14.5759 16.9272 14.5556 16.9529C14.5341 16.9767 14.5109 16.999 14.4864 17.0197C14.4907 17.0375 14.4943 17.054 14.5017 17.081C14.5369 17.0741 14.5714 17.0638 14.6047 17.0504C14.6527 17.0256 14.6987 16.9974 14.7426 16.9658C14.7963 16.9255 14.8597 16.8999 14.9264 16.8916C15.0639 16.8705 15.2031 16.8637 15.342 16.8714C15.4645 16.8849 15.5834 16.891 15.744 16.9033L16.0137 16.8457C16.0198 16.8714 16.0253 16.8953 16.0327 16.9247L16.0885 16.9548C16.1877 16.9284 16.2803 16.8824 16.3839 16.8647C16.3961 16.9407 16.3109 16.9474 16.3048 17.0111C16.3207 17.0179 16.3416 17.0363 16.3581 17.0326C16.4391 17.0223 16.5146 16.9864 16.5739 16.9302C16.6131 16.8886 16.6584 16.8518 16.7032 16.8077L16.7424 16.8641C16.7608 16.8604 16.7829 16.8579 16.8037 16.8524C16.8245 16.8469 16.8442 16.8383 16.8791 16.8254C16.873 16.872 16.8681 16.9045 16.8625 16.9443L16.9502 16.994L16.9189 17.0234H16.9128V17.0173C16.9287 17.0167 16.9385 17.0075 16.949 16.9977Z" fill="#F6F6F6"/>
<path d="M17.73 10.3828C17.7374 10.3405 17.7429 10.3062 17.7484 10.2707C17.7582 10.2707 17.7692 10.267 17.7735 10.2707C17.8157 10.3108 17.8554 10.3533 17.8924 10.3982C17.9582 10.4828 18.0196 10.5708 18.0763 10.6617C18.1096 10.7154 18.133 10.7745 18.1455 10.8364C18.1951 11.0186 18.2283 11.2048 18.2448 11.3929C18.2448 11.5155 18.2448 11.638 18.2387 11.7563C18.2283 11.8948 18.2093 12.0333 18.1903 12.1712C18.1481 12.4429 18.0582 12.7049 17.9249 12.9453C17.9069 12.9764 17.8927 13.0095 17.8826 13.044C17.8162 13.2496 17.7638 13.4595 17.7257 13.6722C17.7121 13.7513 17.6804 13.8261 17.6332 13.891C17.5394 13.8236 17.4799 13.7274 17.3935 13.6581C17.3869 13.5995 17.3838 13.5406 17.3843 13.4816C17.3861 13.4278 17.3965 13.3746 17.415 13.3241C17.4671 13.1954 17.529 13.071 17.5829 12.9429C17.6368 12.8148 17.6828 12.6928 17.7331 12.5684C17.768 12.4807 17.8085 12.3956 17.8379 12.3061C17.9131 12.0944 17.9571 11.8728 17.9684 11.6484C17.9684 11.5541 17.9764 11.4591 17.9721 11.3653C17.9683 11.2803 17.9581 11.1956 17.9415 11.1122C17.9206 11.0068 17.8906 10.9038 17.8802 10.7953C17.8701 10.701 17.8411 10.6097 17.795 10.5269C17.7705 10.4802 17.7488 10.4321 17.73 10.3828Z" fill="#F6F6F6"/>
<path d="M6.88806 20.0893C6.87948 20.0378 6.87519 19.9857 6.86171 19.9355C6.82616 19.8055 6.77407 19.6817 6.72749 19.5555C6.65054 19.382 6.63497 19.1874 6.68336 19.0039C6.68979 18.9874 6.69823 18.9717 6.70849 18.9573C6.70849 18.9573 6.71645 18.9573 6.72687 18.9524C6.73055 19.0235 6.73362 19.094 6.73668 19.1645C6.73476 19.2504 6.75961 19.3348 6.80777 19.4059C6.82329 19.4332 6.83484 19.4625 6.8421 19.493L6.91319 19.6805L7.0088 19.7418C7.02474 19.7724 7.04128 19.8031 7.05845 19.8362L7.06703 19.8288L7.26499 20.0176C7.29808 19.9839 7.32628 19.9563 7.36366 19.9152L7.52118 20.2272L7.62782 20.2597C7.67869 20.3277 7.69585 20.4209 7.7982 20.4632L7.88217 20.4423C7.90151 20.3952 7.91074 20.3446 7.90926 20.2937C7.90778 20.2428 7.89563 20.1928 7.87359 20.1469C7.83505 20.0419 7.81193 19.9319 7.80494 19.8202C7.80261 19.721 7.81041 19.6218 7.82823 19.5242C7.91404 19.4341 8.00045 19.3404 8.08748 19.2527C8.09545 19.2447 8.112 19.2447 8.12303 19.2417C8.13193 19.2445 8.14008 19.2493 8.14685 19.2557C8.15361 19.2621 8.15882 19.27 8.16207 19.2788C8.16532 19.2875 8.16653 19.2969 8.16561 19.3062C8.16468 19.3155 8.16165 19.3244 8.15674 19.3324C8.12528 19.391 8.08878 19.4468 8.04765 19.4991C8.02618 19.5222 8.00212 19.5428 7.97594 19.5604L7.88646 19.8607C7.88849 19.8831 7.89605 19.9047 7.90845 19.9236C7.92086 19.9424 7.93772 19.9578 7.95755 19.9686C8.0826 20.0635 8.17598 20.194 8.22538 20.343C8.21564 20.4259 8.19945 20.5079 8.17696 20.5882C8.15741 20.6509 8.11965 20.7065 8.06847 20.7477C8.01729 20.789 7.955 20.8141 7.88952 20.8199C7.85936 20.8252 7.82844 20.8243 7.79863 20.8172C7.76883 20.8102 7.74077 20.7971 7.71617 20.7789C7.69157 20.7607 7.67094 20.7376 7.65554 20.7112C7.64014 20.6847 7.63029 20.6554 7.62659 20.625C7.61188 20.541 7.60698 20.4558 7.59717 20.3675L7.53221 20.3302L7.54937 20.4589L7.47582 20.5091C7.44468 20.4931 7.41616 20.4724 7.39124 20.4478C7.32995 20.3657 7.27296 20.2793 7.21718 20.1929C7.18041 20.1365 7.14977 20.0758 7.11177 20.0207C7.09533 20.0037 7.07604 19.9898 7.05477 19.9796C7.04622 19.9814 7.03819 19.9852 7.0313 19.9905C7.02441 19.9959 7.01883 20.0028 7.015 20.0106C7.01116 20.0185 7.00916 20.0271 7.00914 20.0359C7.00913 20.0446 7.01111 20.0532 7.01493 20.0611C7.03544 20.1157 7.06066 20.1684 7.09032 20.2186C7.16264 20.3375 7.23986 20.4527 7.31402 20.5704C7.31723 20.5816 7.31847 20.5932 7.3177 20.6047L7.22822 20.5863C7.20247 20.541 7.1706 20.4926 7.1467 20.4405C7.11893 20.3639 7.06793 20.2979 7.00083 20.2517C6.97201 20.2337 6.94714 20.21 6.92776 20.1821C6.90837 20.1542 6.89487 20.1226 6.88806 20.0893Z" fill="#F6F6F6"/>
<path d="M14.3331 18.1918C14.3245 18.1715 14.316 18.1513 14.3043 18.125C14.2744 18.1195 14.244 18.117 14.2136 18.1176C14.1382 18.1274 14.0628 18.1421 13.9881 18.1568C13.8987 18.1771 13.8056 18.174 13.7178 18.1476C13.7406 18.1299 13.7648 18.1139 13.7901 18.0998C13.9654 18.0275 14.1541 18.0054 14.3343 17.9491C14.5312 17.8872 14.7318 17.838 14.935 17.802C15.0097 17.7891 15.0814 17.7591 15.1556 17.7407C15.2022 17.729 15.2506 17.7247 15.3168 17.7143L15.2635 17.8032C15.3952 17.8351 15.5086 17.7554 15.6312 17.7627C15.7642 17.7707 15.8604 17.6726 15.9989 17.6353C15.9415 17.7419 15.867 17.8383 15.7783 17.9209C15.7875 18.0637 15.8261 18.2065 15.7035 18.329L15.581 18.3217C15.5736 18.2414 15.6533 18.1826 15.6042 18.1023C15.5376 18.1132 15.4746 18.1399 15.4204 18.1801C15.3404 18.2313 15.2469 18.2576 15.1519 18.2555C15.0076 18.2551 14.8637 18.2389 14.7229 18.2071C14.6831 18.1997 14.6432 18.193 14.604 18.1832C14.512 18.1603 14.4156 18.162 14.3245 18.1881L14.3331 18.1918Z" fill="#F6F6F6"/>
<path d="M11.8249 20.4906C12.0124 20.5548 12.1755 20.6753 12.2919 20.8356L12.4599 20.8865C12.4721 20.9619 12.4838 21.0274 12.493 21.0942C12.493 21.1148 12.4911 21.1353 12.4875 21.1555L12.3116 21.0366C12.2865 20.9755 12.2438 20.9233 12.189 20.8865C12.0787 20.8019 11.9769 20.7069 11.8684 20.6193C11.7555 20.5231 11.6635 20.4049 11.5982 20.2718C11.5583 20.197 11.5056 20.1283 11.4615 20.0554C11.4002 19.9475 11.3315 19.8397 11.2739 19.7287C11.2163 19.6178 11.1636 19.5038 11.1158 19.388C11.0968 19.3286 11.0811 19.2682 11.0686 19.2072C11.0318 19.0778 10.9926 18.9491 10.9546 18.8204C10.9348 18.774 10.9303 18.7225 10.9418 18.6733C11.2028 19.1324 11.3781 19.6074 11.5902 20.0591L11.6981 20.1529C11.6925 20.189 11.687 20.2233 11.6803 20.2705L11.8249 20.4906Z" fill="#F6F6F6"/>
<path d="M7.1177 18.3228C7.12137 18.2811 7.15692 18.2738 7.18573 18.2707C7.24334 18.2633 7.30218 18.264 7.38124 18.2609L7.46459 18.2253C7.69626 18.2253 7.8029 18.2952 7.79371 18.5618L7.71097 18.4913C7.70729 18.4969 7.69933 18.5036 7.70055 18.5085C7.72947 18.6535 7.72801 18.8029 7.69626 18.9473C7.66677 19.1014 7.60789 19.2483 7.52281 19.38C7.51163 19.3952 7.49911 19.4093 7.48543 19.4223C7.47037 19.4171 7.45765 19.4068 7.44956 19.3931C7.44147 19.3794 7.43854 19.3632 7.4413 19.3475C7.44473 19.2667 7.45374 19.1862 7.46827 19.1067C7.50548 18.9214 7.49856 18.7299 7.44804 18.5477C7.42609 18.4885 7.39575 18.4328 7.35795 18.3822C7.28323 18.3401 7.19854 18.319 7.11279 18.321L7.1177 18.3228Z" fill="#F6F6F6"/>
<path d="M7.05305 18.1934C6.98195 18.3006 6.87531 18.3662 6.80789 18.4655C6.73741 18.564 6.67588 18.6686 6.62403 18.7781C6.57737 18.8898 6.54305 19.0063 6.52167 19.1256C6.49838 19.2432 6.49471 19.3652 6.48184 19.4902L6.42851 19.481L6.37642 19.2359C6.37642 19.1697 6.37213 19.1023 6.37642 19.0355C6.3937 18.8699 6.44282 18.7092 6.52106 18.5623C6.55278 18.4931 6.59564 18.4295 6.64793 18.3742C6.71712 18.3036 6.8032 18.2519 6.89799 18.224C6.94503 18.1974 6.99941 18.1866 7.05305 18.1934Z" fill="#F6F6F6"/>
<path d="M12.9374 16.7705C12.9552 16.7975 12.9772 16.8171 12.9778 16.8361C12.9767 16.8625 12.967 16.8879 12.9502 16.9084C12.8418 17.0567 12.7062 17.1832 12.5506 17.281C12.5004 17.3098 12.4556 17.3485 12.4054 17.3779C12.3551 17.4073 12.3116 17.4232 12.2669 17.4447C12.2598 17.4394 12.2542 17.4324 12.2505 17.4244C12.2468 17.4164 12.2452 17.4076 12.2457 17.3988C12.2463 17.39 12.249 17.3814 12.2536 17.3739C12.2583 17.3664 12.2647 17.3602 12.2724 17.3558C12.3588 17.2847 12.4471 17.2167 12.5353 17.148C12.5966 17.0984 12.6628 17.0506 12.7259 17.0003C12.7692 16.9681 12.8101 16.9329 12.8485 16.8949C12.8803 16.855 12.91 16.8135 12.9374 16.7705Z" fill="#F6F6F6"/>
<path d="M12.6439 20.7693L12.6795 20.7914C12.7646 21.0669 12.8143 21.3521 12.8272 21.6402C12.8272 21.6549 12.8125 21.6708 12.8027 21.6911H12.7132L12.6629 21.5336L12.7303 21.4484C12.6703 21.2337 12.6319 21.0136 12.6157 20.7914L12.6439 20.7693Z" fill="#F6F6F6"/>
<path d="M15.5052 18.4885L15.7056 18.567C15.7262 18.7932 15.6689 19.0196 15.5432 19.2087L15.4641 19.2007C15.4641 19.1836 15.4592 19.1719 15.4641 19.1664C15.5411 19.0245 15.5703 18.8616 15.5474 18.7018C15.5474 18.6663 15.5474 18.6313 15.5517 18.5952L15.5101 18.4849L15.5052 18.4885Z" fill="#F6F6F6"/>
<path d="M15.3347 20.9353L15.5939 20.7097L15.6105 20.7244C15.5998 20.7458 15.5875 20.7663 15.5737 20.7857C15.4868 20.8959 15.3834 20.992 15.2672 21.0707C15.2131 21.1094 15.1497 21.1331 15.0834 21.1394C14.9991 21.1551 14.9169 21.1802 14.8382 21.2141C14.7755 21.2405 14.7077 21.2528 14.6396 21.2503C14.752 21.1875 14.8692 21.134 14.9902 21.0903C15.103 21.0388 15.2145 20.9904 15.3347 20.9353Z" fill="#F6F6F6"/>
<path d="M13.6119 14.2581C13.5965 14.2392 13.5861 14.2167 13.5818 14.1927C13.5775 14.1686 13.5794 14.1439 13.5874 14.1208C13.59 14.1077 13.5948 14.095 13.6015 14.0834C13.6745 13.9412 13.7613 13.8066 13.8607 13.6814C13.8737 13.663 13.8913 13.6483 13.9117 13.6389C13.9322 13.6294 13.9547 13.6255 13.9772 13.6275C13.9764 13.6418 13.9733 13.6558 13.968 13.6691C13.8616 13.8238 13.7741 13.9907 13.7075 14.1662C13.6995 14.1877 13.6867 14.2071 13.6702 14.223C13.6536 14.2389 13.6337 14.2509 13.6119 14.2581Z" fill="#F6F6F6"/>
<path d="M15.433 16.3685C15.3549 16.3933 15.2726 16.4018 15.1911 16.3935C15.1096 16.3851 15.0307 16.3602 14.9592 16.3201C14.8172 16.3636 14.6654 16.3636 14.5234 16.3201L14.5431 16.2092C14.654 16.1883 14.7398 16.2705 14.8403 16.2784C14.9408 16.2864 15.0346 16.3079 15.132 16.3226L15.433 16.3685Z" fill="#F6F6F6"/>
<path d="M15.7715 19.7505C15.7997 19.6156 15.8254 19.5053 15.8456 19.3932C15.8445 19.2773 15.8553 19.1617 15.8781 19.0481C15.9082 19.0757 15.9394 19.0898 15.9394 19.1094C15.9624 19.2287 15.9569 19.3517 15.9235 19.4685C15.8965 19.5439 15.8622 19.6175 15.8279 19.6904C15.8112 19.7123 15.7923 19.7325 15.7715 19.7505Z" fill="#F6F6F6"/>
<path d="M8.14227 21.5034C8.13135 21.526 8.11686 21.5467 8.09937 21.5647C8.05235 21.5948 7.99966 21.6151 7.94454 21.6241C7.88942 21.6332 7.83303 21.6309 7.77883 21.6174C7.74754 21.6138 7.71838 21.5998 7.69611 21.5775C7.67385 21.5553 7.6598 21.5261 7.65625 21.4948C7.68383 21.4519 7.72489 21.4648 7.76412 21.4703C7.84318 21.4813 7.92163 21.4954 8.00069 21.5003C8.04351 21.4986 8.08603 21.4925 8.12756 21.4819L8.14227 21.5034Z" fill="#F6F6F6"/>
<path d="M13.2386 15.2514C13.2698 15.3774 13.2662 15.5096 13.2282 15.6338C13.1854 15.7783 13.1108 15.9115 13.01 16.0236C13.0091 15.9981 13.0109 15.9726 13.0155 15.9476C13.0359 15.8929 13.0592 15.8392 13.0854 15.787C13.1593 15.6527 13.1971 15.5015 13.1951 15.3482C13.1967 15.315 13.2008 15.2821 13.2074 15.2495C13.2178 15.2495 13.2282 15.2501 13.2386 15.2514Z" fill="#F6F6F6"/>
<path d="M16.5169 15.3655C16.5328 15.4525 16.5518 15.5389 16.5647 15.626C16.5761 15.7574 16.6296 15.8816 16.7173 15.9802L16.6658 16.0538C16.6548 16.0482 16.637 16.0452 16.6333 16.0366C16.5916 15.9527 16.5567 15.8656 16.5291 15.7761C16.5058 15.662 16.4892 15.5465 16.4795 15.4304C16.4797 15.4085 16.4826 15.3867 16.4881 15.3655H16.5169Z" fill="#F6F6F6"/>
<path d="M16.8643 14.0581C16.8796 14.0734 16.901 14.0863 16.909 14.1047C17.0133 14.3408 17.0555 14.5997 17.0316 14.8567C17.0233 14.8397 17.0163 14.8221 17.0107 14.804C16.9887 14.6814 16.9697 14.5588 16.9452 14.4363C16.9255 14.34 16.898 14.245 16.8765 14.1488C16.8717 14.1188 16.869 14.0885 16.8685 14.0581H16.8643Z" fill="#F6F6F6"/>
<path d="M13.6804 16.1313C13.6541 16.1797 13.6339 16.2183 13.61 16.2612L13.5591 16.2361L13.5977 16.067L13.6786 16.0234C13.9305 16.089 13.9305 16.089 13.9942 16.1662C13.8827 16.2085 13.7901 16.1301 13.6804 16.1313Z" fill="#F6F6F6"/>
<path d="M17.17 17.4055C17.153 17.5089 17.1091 17.606 17.0429 17.6872C16.9767 17.7684 16.8903 17.8308 16.7925 17.8682C16.831 17.7766 16.8924 17.6965 16.9708 17.6354C17.0382 17.5649 17.0591 17.4582 17.17 17.4055Z" fill="#F6F6F6"/>
<path d="M10.6444 19.4734C10.6265 19.457 10.6104 19.4387 10.5965 19.4188C10.5383 19.2962 10.477 19.178 10.4256 19.0542C10.4005 18.961 10.4005 18.8629 10.4256 18.7698C10.4335 18.7851 10.4495 18.8004 10.4495 18.8157C10.4564 18.9552 10.4939 19.0914 10.5592 19.2147C10.5867 19.276 10.6094 19.3373 10.6327 19.4029C10.6395 19.4258 10.6434 19.4495 10.6444 19.4734Z" fill="#F6F6F6"/>
<path d="M15.5135 18.4838C15.4117 18.493 15.31 18.504 15.207 18.5114C15.1627 18.5128 15.1182 18.5112 15.074 18.5065C15.063 18.5065 15.0526 18.4967 15.0269 18.4844C15.0612 18.4636 15.0845 18.4372 15.109 18.4366C15.2509 18.4291 15.3919 18.4086 15.53 18.3753C15.5478 18.3711 15.5693 18.3845 15.5876 18.3894C15.5962 18.4593 15.5264 18.4507 15.508 18.4906L15.5135 18.4838Z" fill="#F6F6F6"/>
<path d="M12.2062 16.7909C12.2062 16.7731 12.2025 16.7596 12.2062 16.7566C12.3288 16.6652 12.4575 16.5727 12.5838 16.4851C12.6014 16.477 12.6199 16.471 12.6389 16.4673C12.6361 16.4952 12.6262 16.5219 12.6102 16.5449C12.5942 16.568 12.5727 16.5866 12.5476 16.5991C12.4515 16.6904 12.3342 16.7563 12.2062 16.7909Z" fill="#F6F6F6"/>
<path d="M13.5582 18.3448C13.4558 18.4343 13.332 18.4233 13.1904 18.4533C13.2156 18.4141 13.2217 18.392 13.2358 18.3828C13.3266 18.3246 13.436 18.3027 13.5422 18.3215C13.5422 18.3215 13.5447 18.3258 13.5582 18.3448Z" fill="#F6F6F6"/>
<path d="M14.4412 19.688C14.4265 19.6665 14.4099 19.6457 14.3971 19.6267C14.3315 19.5109 14.2665 19.395 14.1997 19.2749C14.299 19.3221 14.3223 19.3552 14.4449 19.6034L14.4393 19.6941L14.4412 19.688Z" fill="#F6F6F6"/>
<path d="M17.3442 19.4333C17.3213 19.5507 17.28 19.6636 17.2217 19.768C17.2049 19.7431 17.1953 19.7141 17.194 19.6841C17.1927 19.6542 17.1997 19.6244 17.2143 19.5982C17.2315 19.5412 17.2431 19.4713 17.3442 19.4333Z" fill="#F6F6F6"/>
<path d="M8.68106 20.5315C8.69209 20.5487 8.69883 20.5597 8.70802 20.575L8.46777 20.8275V20.7521L8.59035 20.5879L8.68106 20.5315Z" fill="#F6F6F6"/>
<path d="M17.179 18.733C17.0938 18.572 17.0738 18.3843 17.1233 18.209C17.1423 18.3837 17.1606 18.543 17.179 18.733Z" fill="#F6F6F6"/>
<path d="M15.7826 20.3594C15.774 20.3586 15.7657 20.3558 15.7583 20.3512C15.751 20.3466 15.7449 20.3404 15.7404 20.333C15.7359 20.3256 15.7332 20.3173 15.7326 20.3087C15.7319 20.3 15.7333 20.2914 15.7366 20.2834C15.7569 20.192 15.8112 20.1118 15.8886 20.0591C15.8898 20.1853 15.7991 20.2589 15.7826 20.3594Z" fill="#F6F6F6"/>
<path d="M16.6943 19.708L16.9033 19.7693C16.8776 19.8306 16.8598 19.841 16.8016 19.8306C16.7317 19.8245 16.7146 19.8012 16.6943 19.708Z" fill="#F6F6F6"/>
<path d="M18.1368 20.2029C18.0529 20.2432 17.965 20.2747 17.8745 20.2967C17.8904 20.2666 17.9124 20.2402 17.9391 20.2191C17.9658 20.198 17.9966 20.1826 18.0296 20.1741C18.0385 20.1688 18.0483 20.1654 18.0586 20.164C18.0688 20.1626 18.0793 20.1633 18.0892 20.166C18.0992 20.1687 18.1086 20.1733 18.1167 20.1797C18.1249 20.186 18.1317 20.1939 18.1368 20.2029Z" fill="#F6F6F6"/>
<path d="M16.8857 17.5652L17.0328 17.4102C17.0121 17.4808 16.9675 17.5422 16.9066 17.5836C16.8992 17.578 16.8922 17.5718 16.8857 17.5652Z" fill="#F6F6F6"/>
<path d="M16.4868 19.7808C16.4834 19.8349 16.4661 19.8873 16.4365 19.9328C16.3948 19.8568 16.401 19.8414 16.4898 19.7838L16.4868 19.7808Z" fill="#F6F6F6"/>
<path d="M16.4342 19.5607C16.4924 19.4688 16.4924 19.4688 16.585 19.4816C16.5379 19.5146 16.486 19.5402 16.4312 19.5576L16.4342 19.5607Z" fill="#F6F6F6"/>
<path d="M11.3873 16.4917C11.3849 16.4634 11.3915 16.4352 11.4063 16.411C11.4211 16.3869 11.4432 16.3681 11.4695 16.3574L11.4658 16.3538C11.4388 16.3985 11.4112 16.4432 11.3843 16.4886L11.3873 16.4917Z" fill="#F6F6F6"/>
<path d="M12.2432 21.5964L12.3314 21.6321C12.2837 21.6629 12.268 21.649 12.2432 21.5964Z" fill="#F6F6F6"/>
<path d="M10.4295 20.9656C10.4295 21.0207 10.3848 21.0434 10.356 21.0783L10.3596 21.082L10.4338 20.9656H10.4295Z" fill="#F6F6F6"/>
<path d="M7.70947 18.1109C7.72519 18.0704 7.73305 18.0505 7.74091 18.0317C7.78263 18.0722 7.78263 18.0722 7.70947 18.1109Z" fill="#F6F6F6"/>
<path d="M16.3026 17.9347C16.3026 17.9433 16.297 17.9525 16.294 17.9617H16.2866C16.2866 17.9525 16.2909 17.9433 16.2928 17.9341L16.3026 17.9347Z" fill="#F6F6F6"/>
<path d="M16.2282 18.1635L16.2129 18.1886L16.2056 18.1843L16.2209 18.1592L16.2282 18.1635Z" fill="#F6F6F6"/>
<path d="M11.5772 16.167C11.5597 16.193 11.5512 16.2275 11.5083 16.2275L11.579 16.167H11.5772Z" fill="#F6F6F6"/>
<path d="M8.90354 19.8408L8.83643 19.8523C8.83643 19.8481 8.83643 19.8432 8.83643 19.8384L8.90777 19.8426L8.90354 19.8408Z" fill="#F6F6F6"/>
<path d="M14.3071 18.4163L14.2539 18.4205V18.4163H14.3071Z" fill="#F6F6F6"/>
<path d="M14.3302 18.1882L14.2902 18.2064L14.2866 18.1913H14.3332L14.3302 18.1882Z" fill="#F6F6F6"/>
<path d="M5.36808 20.4338H5.37456C5.3751 20.4371 5.3751 20.4403 5.37456 20.4436H5.36808C5.36754 20.4403 5.36754 20.4371 5.36808 20.4338Z" fill="#F6F6F6"/>
<path d="M6.01165 25.6235L6.02253 25.6284L6.01044 25.6411C6.00778 25.6381 6.00572 25.6346 6.00439 25.6308C6.00439 25.6308 6.00923 25.6266 6.01165 25.6235Z" fill="#F6F6F6"/>
<path d="M11.5965 16.1022C11.6003 16.0957 11.6035 16.0892 11.6003 16.0957L11.5933 16.0989L11.5965 16.1022Z" fill="#F6F6F6"/>
<path d="M14.4709 19.7393L14.4419 19.6885V19.6915C14.4516 19.7084 14.4618 19.7254 14.4715 19.7429L14.4709 19.7393Z" fill="#F6F6F6"/>
<path d="M16.8661 14.0535C16.8618 14.0486 16.857 14.0437 16.8607 14.0481V14.0562L16.8661 14.0535Z" fill="#F6F6F6"/>
<path d="M11.4918 16.2981C11.4834 16.3162 11.4749 16.3344 11.4658 16.3525L11.4694 16.3561C11.4658 16.3326 11.4694 16.3108 11.4948 16.3017L11.4918 16.2981Z" fill="#F6F6F6"/>
<path d="M17.7545 20.3191L17.7505 20.3243H17.7574L17.7545 20.3191Z" fill="#F6F6F6"/>
<path d="M11.5084 16.2278C11.503 16.2508 11.4981 16.2743 11.4927 16.2973L11.4963 16.3009C11.5011 16.278 11.5054 16.2544 11.5102 16.2314L11.5084 16.2278Z" fill="#F6F6F6"/>
<path d="M15.3335 21.1911V21.1822C15.3368 21.175 15.3335 21.1822 15.3335 21.1883V21.1911Z" fill="#F6F6F6"/>
<path d="M11.5842 16.1694C11.5786 16.1583 11.5771 16.1455 11.5801 16.1334C11.5831 16.1213 11.5904 16.1107 11.6005 16.1035L11.5969 16.0999C11.5921 16.1222 11.5866 16.144 11.5818 16.1658L11.5842 16.1694Z" fill="#F6F6F6"/>
<path d="M12.975 22.6205V22.6169H12.9697L12.975 22.6205Z" fill="#F6F6F6"/>
<path d="M7.11426 18.3193V18.324H7.11955L7.11426 18.3193Z" fill="#F6F6F6"/>
<path d="M16.2989 17.6443L16.2954 17.6525L16.3019 17.6478L16.2989 17.6443Z" fill="#F6F6F6"/>
<path d="M10.4082 27.3435L10.4132 27.3466V27.3403L10.4082 27.3435Z" fill="#F6F6F6"/>
<path d="M17.7583 20.3228L17.763 20.3169H17.7554L17.7583 20.3228Z" fill="#F6F6F6"/>
<path d="M11.0571 21.2105L11.0634 21.207H11.0588L11.0571 21.2105Z" fill="#F6F6F6"/>
<path d="M11.0578 21.2058L11.0547 21.2137V21.209L11.0578 21.2058Z" fill="#F6F6F6"/>
<path d="M6.80955 24.3888L6.85127 24.3936L6.84764 24.4051L6.80713 24.387L6.80955 24.3888Z" fill="#F6F6F6"/>
</svg>
